<svg version="1.1" xmlns="http://www.w3.org/2000/svg" style="display: block;" viewBox="0 0 2048 2048" width="1024" height="1024">
<defs>
	<linearGradient id="Gradient1" gradientUnits="userSpaceOnUse" x1="1225.55" y1="1158.48" x2="1252.41" y2="1202.75">
		<stop class="stop0" offset="0" stop-opacity="1" stop-color="rgb(0,0,3)"/>
		<stop class="stop1" offset="1" stop-opacity="1" stop-color="rgb(1,2,29)"/>
	</linearGradient>
	<linearGradient id="Gradient2" gradientUnits="userSpaceOnUse" x1="1513.89" y1="728.681" x2="1363.99" y2="1081.6">
		<stop class="stop0" offset="0" stop-opacity="1" stop-color="rgb(1,1,16)"/>
		<stop class="stop1" offset="1" stop-opacity="1" stop-color="rgb(2,4,36)"/>
	</linearGradient>
</defs>
<path transform="translate(0,0)" fill="rgb(241,241,237)" d="M 0 0 L 2048 0 L 2048 2048 L 0 2048 L 0 0 z"/>
<path transform="translate(0,0)" fill="rgb(2,4,34)" d="M 968.107 67.1548 C 989.446 66.394 1011.05 67.1239 1032.42 67.1366 C 1047.31 67.1455 1062.61 66.1642 1077.43 67.341 C 1082.42 67.7371 1087.38 68.5687 1092.09 70.3274 C 1101.13 73.7072 1108.72 81.1163 1113.51 89.3731 C 1119.37 99.4703 1121.94 111.883 1125.23 123.026 A 3034.73 3034.73 0 0 1 1145.72 195.349 C 1149.68 209.792 1152.84 226.501 1159.4 239.978 C 1159.56 240.319 1159.74 240.655 1159.91 240.993 C 1177.68 246.52 1196.17 249.551 1214.08 254.614 C 1241.31 262.307 1267.54 272.07 1294.14 281.576 L 1373.58 209.154 C 1385.52 198.077 1405.18 176.381 1418.2 168.563 C 1428.76 162.22 1441.58 158.62 1453.78 161.993 C 1458.8 163.381 1463.67 165.74 1468.19 168.31 C 1484.63 177.655 1500.3 189.013 1516.31 199.171 C 1529.81 207.738 1545.18 215.6 1557.57 225.537 C 1562.58 229.553 1567.08 234.028 1570.27 239.663 C 1574.04 246.324 1575.92 254.528 1575.27 262.167 C 1573.94 277.695 1567.18 294.391 1562.94 309.401 C 1552.87 345.05 1542.08 380.597 1532.78 416.451 C 1568.15 447.975 1601.78 480.555 1633.36 515.901 C 1645.41 513.235 1657.46 509.353 1669.36 506.046 L 1739.69 486.468 C 1753.96 482.519 1769.31 477.206 1784.04 475.508 C 1796.42 474.081 1808.01 476.206 1817.78 484.374 C 1821.68 487.638 1824.94 491.587 1827.83 495.755 C 1836.81 508.711 1844.32 523.018 1852.72 536.398 C 1862.88 552.603 1874.8 568.884 1883.2 586.042 C 1885.94 591.645 1888.17 597.643 1888.47 603.928 C 1888.89 612.458 1886.16 621.94 1881.41 629.023 C 1872.15 642.828 1851.8 661.041 1839.72 673.871 C 1814.54 700.604 1790.07 727.666 1765.71 755.141 C 1769.48 767.639 1775 779.777 1779.24 792.161 C 1790.09 823.797 1799.83 856.657 1806.08 889.528 C 1839.63 900.383 1874.09 908.753 1908.07 918.109 C 1923.49 922.352 1939.94 925.84 1954.71 932.01 C 1964.37 936.044 1973.32 943.622 1977.11 953.638 C 1978.87 958.279 1979.71 963.648 1980.09 968.579 C 1981.71 989.409 1980.47 1010.95 1980.52 1031.88 C 1980.56 1048.09 1982.08 1065.04 1980.46 1081.14 C 1979.88 1086.92 1978.39 1092.64 1975.74 1097.82 C 1972.34 1104.46 1966.8 1110.71 1960.22 1114.31 C 1951.85 1118.91 1939.93 1120.61 1930.69 1123.31 A 2960.92 2960.92 0 0 1 1856.56 1143.97 C 1839.77 1148.33 1822.65 1151.66 1806.23 1157.3 C 1799.41 1185.1 1793.93 1213.23 1786.86 1240.98 C 1782 1260.07 1775.24 1278.73 1771.05 1297.97 C 1778.82 1310.45 1791.83 1321.34 1802.04 1331.97 C 1826.24 1357.15 1854.96 1385.22 1877.57 1411.43 C 1885.4 1420.5 1889.69 1432.44 1888.52 1444.46 C 1887.91 1450.68 1885.81 1456.57 1883.11 1462.17 C 1874.86 1479.32 1862.96 1495.68 1852.88 1511.9 C 1844.51 1525.37 1837.01 1539.77 1827.81 1552.66 C 1824.77 1556.91 1821.38 1560.88 1817.32 1564.2 C 1809.82 1570.32 1800.5 1574.06 1790.77 1574.06 C 1775.56 1574.05 1759.48 1567.8 1744.91 1563.69 C 1724.22 1557.86 1703.36 1552.66 1682.63 1546.99 C 1666.45 1542.55 1650.13 1536.69 1633.41 1534.8 C 1617.28 1544.35 1600.02 1569.59 1585.79 1583.42 C 1569.64 1599.12 1551.66 1612.85 1535.76 1628.81 C 1543.33 1668.8 1554.67 1708.39 1564.52 1747.91 C 1567.87 1761.35 1573.61 1775.87 1574.64 1789.64 C 1575.09 1795.71 1573 1802.49 1570.38 1807.88 C 1567.84 1813.09 1563.1 1817.42 1558.58 1820.96 C 1543.57 1832.72 1525.78 1842.12 1509.67 1852.43 C 1496.26 1861.01 1483.41 1870.85 1469.63 1878.79 C 1465.26 1881.3 1460.68 1883.54 1455.86 1885.04 C 1445.5 1888.28 1432.84 1887.53 1423.04 1882.77 C 1412.59 1877.71 1403.01 1865.99 1394.59 1857.93 A 6756.85 6756.85 0 0 0 1333.46 1800.73 C 1322.43 1790.48 1308.49 1774.55 1295.51 1767.64 C 1295.17 1767.46 1294.82 1767.29 1294.48 1767.11 C 1276.05 1770.22 1249.14 1780.43 1230.02 1785.97 C 1206.83 1792.7 1183.19 1797.51 1159.89 1803.78 C 1149 1837.6 1140.27 1872.27 1130.64 1906.48 C 1126.45 1921.37 1123.01 1937.62 1116.98 1951.87 C 1111.17 1965.61 1103.59 1972.53 1089.78 1978.19 C 1075.45 1982.42 1032.65 1979.76 1015.53 1979.93 C 1001.61 1980.07 987.333 1981.53 973.48 1980.51 C 967.262 1980.05 961.05 1978.79 955.281 1976.38 C 948.326 1973.47 940.964 1968.09 937.059 1961.52 C 929.218 1948.33 926.014 1930.06 921.955 1915.26 L 903.297 1847.61 C 899.158 1832.69 895.484 1817.3 889.907 1802.84 C 871.956 1797.09 851.847 1795.08 833.375 1790.94 C 806.404 1784.89 780.254 1776.69 753.981 1768.19 C 741.71 1775.97 730.543 1787.18 719.843 1796.99 L 668.49 1844.44 C 657.779 1854.44 647.267 1865.19 635.722 1874.21 C 625.27 1882.37 612.527 1886.62 599.214 1884.76 C 593.578 1883.97 588.212 1882.07 583.124 1879.56 C 567.117 1871.67 552.281 1860.46 537.082 1851.1 C 522.952 1842.4 507.099 1834.54 493.802 1824.76 C 489.838 1821.84 486.245 1818.6 483.378 1814.58 A 39.1163 39.1163 0 0 1 476.285 1789.7 C 477.096 1775.22 483.039 1759.18 486.731 1745.18 L 504.893 1675.03 C 509.087 1658.95 514.016 1642.79 516.674 1626.38 A 1642.83 1642.83 0 0 1 444.37 1557.95 C 435.424 1548.97 427.383 1539.01 418.23 1530.3 C 402.904 1532.73 387.582 1538.08 372.647 1542.34 L 304.633 1561.33 C 290.66 1565.23 275.62 1570.75 260.997 1571.06 C 248.488 1571.32 236.052 1567.2 227.169 1558.2 C 215.728 1546.61 202.81 1519.36 194.009 1504.74 C 185.539 1490.66 174.388 1476.3 168.007 1461.18 A 50.6763 50.6763 0 0 1 164.144 1440.59 C 164.248 1432.48 166.341 1425.09 170.536 1418.17 C 180.392 1401.9 197.126 1387.19 210.247 1373.42 A 3049.81 3049.81 0 0 1 283.302 1298.35 C 278.595 1281.66 271.61 1265.52 266.373 1248.96 C 256.688 1218.34 249.722 1188.16 243.656 1156.64 C 227.889 1150.99 211.225 1147.39 194.986 1143.33 A 4831.89 4831.89 0 0 1 129.617 1126.51 C 116.476 1123.03 102.41 1120.16 89.8963 1114.81 C 82.6699 1111.72 76.3958 1103.36 73.7796 1096.14 C 72.0589 1091.39 71.221 1086.48 70.8339 1081.46 C 69.371 1062.51 70.458 1042.93 70.2448 1023.89 C 70.04 1005.6 68.1747 985.504 70.1041 967.386 C 70.7083 961.713 71.8286 956.207 74.4315 951.074 C 77.7213 944.586 82.8023 937.577 89.3315 934.04 C 103.114 926.574 121.81 923.787 136.96 919.67 C 172.602 909.982 208.992 901.244 243.85 889.029 C 247.428 876.188 249.194 862.622 252.303 849.608 A 950.148 950.148 0 0 1 281.044 749.682 L 203.961 669.081 C 192.434 656.834 179.245 644.601 169.459 630.976 C 162.85 621.774 160.103 608.764 162.247 597.638 C 163.275 592.302 165.555 587.012 168.172 582.262 C 176.096 567.878 186.195 554.069 195.004 540.139 C 204.841 524.585 214.117 507.643 225.162 492.964 C 228.333 488.75 232.066 484.939 236.436 481.965 A 39.3795 39.3795 0 0 1 259.517 475.046 C 276.765 475.492 296.333 483.187 312.967 487.733 C 348.58 497.466 384.998 508.593 421.213 515.728 A 1114.87 1114.87 0 0 1 516.193 419.765 C 509.056 382.444 497.599 344.995 488.014 308.181 C 484.294 293.891 479.546 279.133 477.314 264.546 C 475.607 253.389 477.68 242.446 484.781 233.405 C 491.816 224.449 571.468 173.673 585.205 166.735 C 590.439 164.091 596.064 162.162 601.915 161.528 C 610.978 160.545 621.539 162.749 629.532 167.267 C 642.672 174.693 654.236 188.951 665.293 199.142 C 694.929 226.455 724.361 254.941 756.019 279.876 C 800.3 264.026 844.83 252.68 890.473 241.683 C 894.641 230.709 897.184 218.731 900.474 207.432 L 923.869 126.258 C 927.629 113.587 930.654 98.3985 937.534 87.0535 C 944.384 75.758 955.7 70.1484 968.107 67.1548 z"/>
<path transform="translate(0,0)" fill="rgb(241,241,237)" d="M 971.419 82.4012 A 59.4013 59.4013 0 0 1 974.475 82.2423 C 993.161 81.6887 1075.85 79.6451 1087.07 84.2939 C 1093.22 86.8387 1098.06 93.0255 1101.04 98.7509 C 1106.23 108.707 1108.68 120.997 1111.76 131.803 L 1133.05 206.859 C 1136.47 218.6 1139.29 231.39 1143.94 242.689 C 1145.54 246.603 1147.81 251.189 1151.1 253.986 C 1156.67 258.714 1206.85 269.324 1217.03 272.152 C 1228.83 275.428 1291.42 297.606 1297.04 296.277 C 1306.65 294.005 1387.41 217.416 1400.28 205.528 C 1409.2 197.293 1418.23 186.802 1428.45 180.371 C 1431.73 178.308 1435.88 177.327 1439.7 176.941 C 1445.24 176.379 1450.77 176.833 1455.91 179.077 C 1471.76 185.998 1486.28 198.582 1500.93 207.954 C 1516.87 218.151 1535.51 227.196 1549.98 239.236 C 1556.2 244.414 1558.84 248.797 1559.41 256.953 C 1560.3 269.758 1553.95 284.299 1550.41 296.539 C 1545.57 313.311 1515.89 408.095 1517.54 418.874 C 1518.07 422.316 1520.25 425.229 1522.57 427.711 C 1527.75 433.252 1534.18 437.977 1539.81 443.107 A 1122.37 1122.37 0 0 1 1569.44 471.47 A 2209.37 2209.37 0 0 1 1603.68 506.405 C 1610.42 513.537 1617.02 522.371 1624.89 528.226 C 1628.35 530.794 1632.62 530.804 1636.75 530.343 C 1648.09 529.08 1660.33 524.226 1671.37 521.131 C 1693.29 514.99 1715.43 509.644 1737.32 503.425 C 1753.22 498.91 1770.41 492.01 1786.75 489.995 C 1793.87 489.115 1802.62 492.138 1808.01 496.843 C 1813.92 502.01 1864.33 581.348 1869.25 591.724 C 1871.38 596.223 1872.9 600.985 1872.97 606.003 C 1873.06 611.717 1871.28 617.549 1868.17 622.332 C 1863.1 630.144 1854.83 636.968 1848.25 643.573 A 1435.62 1435.62 0 0 0 1811.23 681.409 C 1797.62 696.124 1764.29 729.854 1755.5 744.369 C 1752.91 748.645 1750.81 753.922 1751.24 759.025 C 1751.9 766.804 1757.47 777.37 1760.12 784.879 A 939.748 939.748 0 0 1 1774.26 827.855 C 1777.87 839.891 1789.65 894.132 1794.58 899.739 C 1802.03 908.209 1899.45 931.784 1917.32 936.906 C 1929.98 940.533 1947.94 943.555 1957.86 952.438 C 1963.16 957.184 1963.92 962.782 1964.43 969.588 C 1965.86 988.887 1964.88 1008.94 1964.89 1028.32 C 1964.9 1046.25 1966.02 1065.02 1964.39 1082.83 C 1964.08 1086.18 1963.4 1089.6 1961.77 1092.59 C 1959.05 1097.6 1953.3 1100.77 1948.2 1102.86 C 1939.7 1106.33 1929.8 1107.64 1920.89 1109.91 C 1897.51 1115.86 1874.28 1122.45 1850.94 1128.59 C 1836.86 1132.29 1821.82 1134.99 1808.21 1140.09 C 1804.4 1141.51 1797.82 1144.35 1795.46 1147.79 C 1788.98 1157.21 1782.22 1202.1 1778.15 1216.99 C 1774.6 1230 1756.22 1286.77 1757.15 1296.14 C 1757.77 1302.36 1760.8 1308.26 1764.35 1313.31 C 1772.72 1325.21 1784.62 1336.01 1794.7 1346.53 C 1810.25 1362.74 1825.63 1379.14 1841.34 1395.2 C 1851.02 1405.09 1869.22 1419.28 1872.46 1433.13 C 1873.78 1438.76 1873.47 1445.08 1871.62 1450.56 C 1867.93 1461.53 1859.74 1472.45 1853.74 1482.35 C 1842.41 1501.01 1831.02 1519.7 1819.34 1538.14 C 1815.58 1544.07 1809.59 1554.03 1802.89 1556.57 C 1797.68 1558.55 1791.28 1558.5 1785.86 1557.71 C 1775.17 1556.16 1764.37 1552.59 1753.9 1549.86 A 2145.03 2145.03 0 0 1 1690.25 1532.57 C 1672.47 1527.43 1646.07 1516.49 1627.88 1520.92 C 1622.57 1522.21 1618.38 1525.15 1614.34 1528.73 C 1607.35 1534.9 1601.24 1542.77 1594.96 1549.69 C 1584.07 1561.66 1573.06 1573.2 1561.26 1584.28 C 1549.95 1594.91 1528.11 1610.6 1520.79 1623.09 C 1520.58 1623.43 1520.39 1623.78 1520.19 1624.12 C 1521.35 1640.16 1525.86 1656.16 1529.58 1671.77 A 3732.95 3732.95 0 0 0 1549.01 1748.41 C 1552.43 1761.38 1557.25 1775.15 1558.78 1788.45 C 1559.31 1793.11 1558.77 1797.53 1556.42 1801.64 C 1554.42 1805.15 1551.34 1807.97 1548.1 1810.3 C 1540.92 1815.45 1532.41 1819.42 1524.9 1824.16 C 1509.87 1833.65 1461.22 1868.53 1448.74 1871.56 C 1442.65 1873.04 1435.76 1872.38 1430.21 1869.4 C 1419.77 1863.8 1410.26 1852.08 1401.64 1843.79 C 1387.63 1830.32 1373.16 1817.35 1359.04 1804 C 1345.23 1790.95 1318.32 1762.89 1303.45 1754.71 C 1299.24 1752.4 1295.17 1752.03 1290.51 1752.84 C 1280.84 1754.51 1271.24 1758.11 1261.86 1761.01 A 1249.35 1249.35 0 0 1 1217.5 1774.09 A 852.559 852.559 0 0 1 1180.43 1783.29 C 1171.82 1785.17 1162.24 1786.27 1153.99 1789.26 C 1149.26 1790.98 1146.68 1796.04 1144.81 1800.39 C 1138.41 1815.27 1135.03 1833.31 1130.74 1849.03 C 1124.84 1870.66 1118.28 1892.08 1112.3 1913.68 C 1109.01 1925.56 1106.83 1939.17 1101.43 1950.19 C 1097.35 1958.51 1091.21 1962.04 1082.65 1964.81 C 1066.5 1965.78 974.211 1967.12 962.63 1963.68 C 956.744 1961.93 952.332 1955.98 949.56 1950.82 C 942.867 1938.36 939.862 1922.09 936.069 1908.54 L 914.348 1829.98 C 911.321 1819.28 908.938 1806.34 903.143 1796.81 C 900.585 1792.61 897.965 1790.73 893.389 1789.03 C 874.279 1781.96 847.43 1778.99 826.8 1773.8 A 1135.48 1135.48 0 0 1 785.258 1762.36 C 776.765 1759.82 768.038 1756.54 759.355 1754.79 C 754.71 1753.85 750.078 1754.01 745.757 1756.06 C 734.966 1761.19 724.927 1772.46 716.154 1780.46 L 658.539 1832.99 C 646.997 1843.6 634.92 1857.02 621.591 1865.28 C 615.067 1869.33 606.891 1872.22 599.214 1870.2 C 586.109 1866.74 562.841 1848.11 549.755 1840.6 C 536.899 1833.23 500.891 1815.12 494.192 1802.51 C 492.549 1799.42 491.449 1795.86 491.615 1792.33 C 492.202 1779.86 497.326 1766.05 500.503 1753.96 L 520.948 1673.83 C 524.373 1660.51 529.742 1646.19 531.335 1632.6 C 531.894 1627.83 532.044 1623.35 529.53 1619.14 C 527.697 1616.07 525.3 1613.24 522.772 1610.72 C 516.416 1604.38 509.148 1598.8 502.475 1592.78 A 1273.7 1273.7 0 0 1 471.373 1563.25 C 457.605 1549.82 444.538 1533.29 429.601 1521.38 C 424.782 1517.54 420.566 1516.2 414.737 1514.65 L 317.417 1541.71 C 300.355 1546.57 279.61 1554.51 262.566 1556.64 C 255.227 1557.55 246.527 1554.25 240.973 1549.53 C 237.329 1546.43 234.308 1542.58 231.668 1538.61 C 224.404 1527.69 218.601 1515.62 211.823 1504.36 C 202.696 1489.21 191.648 1474 184.008 1458.09 C 181.677 1453.24 179.383 1447.44 179.257 1442.02 C 179.1 1435.28 181.783 1428.79 185.415 1423.24 C 192.438 1412.5 203.293 1402.9 212.112 1393.57 C 237.223 1366.99 263.972 1341.44 288.232 1314.14 C 293.367 1308.36 297.654 1302.4 296.861 1294.33 C 295.539 1280.9 287.855 1266.39 283.351 1253.68 C 279.857 1243.83 277.144 1233.62 274.364 1223.54 C 271.224 1212.17 258.864 1154.15 256.322 1149.92 C 253.542 1145.29 248.634 1142.06 243.762 1139.99 C 230.641 1134.42 214.763 1131.99 200.921 1128.63 A 3393.29 3393.29 0 0 1 130.564 1110.96 C 118.698 1107.91 101.568 1105.39 92.1428 1097.11 C 86.3813 1092.05 85.4761 1083.29 85.2024 1076.07 C 84.5696 1059.38 85.8405 1042.43 85.8254 1025.7 C 85.8087 1007.23 84.5782 988.12 85.6673 969.708 C 85.8938 965.879 86.3079 961.613 87.8029 958.05 C 90.2945 952.113 97.088 948.1 102.692 945.607 C 111.431 941.718 121.694 939.861 130.916 937.253 A 2886.1 2886.1 0 0 1 200.865 918.061 C 216.361 913.967 234.034 910.814 248.542 904.089 C 252.166 902.409 254.518 900.346 257.22 897.42 C 257.493 897.125 257.76 896.823 258.03 896.525 C 263.077 876.422 266.171 855.875 271.339 835.757 C 275.331 820.22 279.296 804.605 283.925 789.247 C 287.774 776.481 295.474 760.827 295.99 747.646 C 296.131 744.039 290.931 737.998 288.638 735.272 C 281.231 726.464 272.437 718.572 264.495 710.227 L 209.772 652.657 C 199.192 641.514 181.068 627.352 176.839 612.581 C 174.731 605.219 175.751 600.491 179.42 593.936 C 190.96 573.318 204.986 553.703 217.697 533.794 C 224.777 522.705 233.06 505.652 242.098 496.765 C 246.522 492.415 252.932 490.744 258.737 489.124 C 271.944 491.686 285.136 496.353 298.176 499.841 A 5886.69 5886.69 0 0 0 378.472 520.716 C 392.044 524.124 409.34 530.515 423.32 529.096 C 427.754 528.647 430.001 526.892 433.252 523.997 C 440.007 517.984 445.997 510.65 452.294 504.127 A 4219.51 4219.51 0 0 1 488.553 467.41 C 500.288 455.71 514.821 445.18 525.208 432.392 C 528.287 428.602 531.235 423.929 531.167 418.863 C 530.996 406.009 524.79 390.316 521.485 377.663 L 504.353 310.67 C 499.441 291.711 493.618 272.415 491.13 252.977 C 492.212 250.103 493.425 247.349 495.184 244.814 C 497.837 240.99 501.748 237.831 505.521 235.161 C 517.565 226.641 530.992 219.647 543.42 211.634 C 558.654 201.812 573.587 190.382 589.445 181.656 C 593.573 179.385 598.059 177.274 602.735 176.465 C 609.922 175.221 617.047 178.005 623.036 181.784 C 633.215 188.208 642.346 198.576 651.222 206.725 A 5782 5782 0 0 0 715.07 264.718 C 724.244 272.882 733.733 282.729 743.941 289.519 C 748.051 292.254 753.459 294.831 758.527 293.669 C 769.667 291.112 780.844 286.68 791.78 283.274 A 1457.38 1457.38 0 0 1 844.566 268.269 C 855.438 265.432 892.609 259.298 900.285 252.67 C 907.044 246.835 929.871 161.13 933.568 148.048 C 937.416 134.431 943.82 103.037 951.733 92.0593 C 956.283 85.747 964.111 83.5171 971.419 82.4012 z"/>
<path transform="translate(0,0)" fill="rgb(2,4,34)" d="M 998.187 379.432 C 1024.01 378.637 1050.1 378.466 1075.88 380.477 A 645.659 645.659 0 0 1 1449.59 537.463 C 1582.46 654.57 1658.85 808.39 1669.68 985.163 A 644.239 644.239 0 0 1 1554.1 1391.85 C 1540.32 1411.8 1526.2 1431.52 1510.08 1449.67 A 646.544 646.544 0 0 1 1139.64 1657.12 C 1111.65 1662.05 1083.58 1664.22 1055.25 1665.89 C 1016.15 1667.29 977.312 1666.73 938.427 1661.97 A 635.856 635.856 0 0 1 631.902 1534.39 C 615.769 1521.95 600.469 1508.15 585.332 1494.52 A 622.521 622.521 0 0 1 381.236 1066.03 C 372.571 895.46 430.153 720.944 545.355 593.786 A 642.064 642.064 0 0 1 998.187 379.432 z"/>
<path transform="translate(0,0)" fill="rgb(241,241,237)" d="M 830.505 1140.5 C 835.593 1144.73 838.23 1162.66 839.909 1169.42 L 829.976 1166.32 C 825.864 1165.07 821.828 1163.65 817.778 1162.21 C 822.18 1155.06 825.948 1147.59 830.505 1140.5 z"/>
<path transform="translate(0,0)" fill="rgb(241,241,237)" d="M 700.639 833.504 C 704.19 834.15 707.681 836.194 710.937 837.723 C 705.54 846.621 700.345 855.513 695.513 864.737 C 694.441 866.692 693.604 867.791 691.855 869.181 L 690.263 868.772 C 690.17 868.386 690.038 868.007 689.983 867.614 C 688.687 858.334 695.227 840.775 700.639 833.504 z"/>
<path transform="translate(0,0)" fill="rgb(241,241,237)" d="M 929.659 1248.93 C 931.248 1250.52 931.37 1252.92 931.908 1255.09 C 931.084 1258.08 930.395 1259.39 927.921 1261.36 C 919.525 1268.02 900.188 1274.03 889.594 1272.51 C 887.971 1270.6 886.682 1268.52 885.342 1266.4 C 887.929 1263.84 896.09 1263.16 900.036 1262.05 C 910.757 1259.02 920.103 1254.58 929.659 1248.93 z"/>
<path transform="translate(0,0)" fill="rgb(241,241,237)" d="M 833.059 861.767 C 845.415 863.484 856.38 867.11 868.075 871.253 C 856.34 874.65 846.146 877.58 835.363 883.524 C 827.985 887.977 821.155 893.487 814.249 898.635 C 819.782 885.996 826.526 873.907 833.059 861.767 z"/>
<path transform="translate(0,0)" fill="rgb(241,241,237)" d="M 943.417 774.993 C 945.836 775.398 948.294 775.939 950.572 776.877 C 954.43 778.464 957.547 781.359 959.089 785.257 C 960.556 788.966 960.336 792.91 958.634 796.51 C 956.14 801.787 952.117 804.232 946.883 806.302 C 944.899 806.155 943.067 805.88 941.176 805.259 C 936.804 803.822 932.907 800.823 930.984 796.56 C 929.272 792.765 929.467 788.42 931.18 784.663 C 933.637 779.278 938.149 777.015 943.417 774.993 z"/>
<path transform="translate(0,0)" fill="rgb(241,241,237)" d="M 826.302 1128.88 L 827.528 1128.94 C 829.494 1130.94 829.142 1131.88 829.474 1134.53 C 827.996 1138.51 824.758 1141.5 821.909 1144.58 C 817.996 1148.81 818.58 1154.98 814.8 1158.68 C 806.045 1161.43 789.98 1155.39 780.806 1153.25 L 765.13 1150.03 C 785.304 1147.08 807.793 1137.31 826.302 1128.88 z"/>
<path transform="translate(0,0)" fill="rgb(241,241,237)" d="M 823.896 1105.08 C 825.335 1108.81 825.861 1113.06 826.632 1116.98 C 800.087 1130.65 760.298 1144.86 730.416 1143.79 L 728.421 1142.3 L 728.197 1138.65 C 729.675 1136.17 730.155 1135.64 732.935 1134.86 C 740.957 1132.6 749.495 1131.35 757.645 1129.51 C 780.858 1124.28 803.252 1117.11 823.896 1105.08 z"/>
<path transform="translate(0,0)" fill="rgb(241,241,237)" d="M 881.615 1504.06 C 894.896 1506.68 908.188 1510.14 921.289 1513.56 C 910.454 1522.94 898.152 1531.13 886.391 1539.31 L 861.174 1554.99 C 867.694 1537.92 874.827 1521.03 881.615 1504.06 z"/>
<path transform="translate(0,0)" fill="rgb(241,241,237)" d="M 849.916 817.568 C 887.736 831.06 932.911 861.686 964.845 885.912 C 970.713 890.363 981.968 897.233 984.944 904.006 C 986.264 907.01 985.392 908.188 984.443 911.07 C 983.884 911.42 982.842 912.115 982.232 912.298 C 976.184 914.119 925.558 866.939 915.813 860.468 C 903.781 852.479 890.475 845.263 877.354 839.195 C 869.337 835.487 860.398 833.003 853.033 828.104 C 850.623 824.929 850.465 821.407 849.916 817.568 z"/>
<path transform="translate(0,0)" fill="rgb(241,241,237)" d="M 794.398 1370.73 C 796.692 1373.37 798.079 1377.8 799.32 1381.08 C 807.441 1402.59 805.49 1431.73 796.035 1452.51 L 784.752 1448.47 L 768.273 1441.81 C 777.48 1418.79 783.868 1392.68 794.398 1370.73 z"/>
<path transform="translate(0,0)" fill="rgb(241,241,237)" d="M 725.923 1148.92 C 764.832 1161.16 805.076 1167.79 843.507 1181.79 C 845.314 1186.25 848.93 1192.95 847.977 1197.57 L 845.804 1197.21 C 809.254 1183.12 759.161 1170.89 720.158 1168.56 C 721.582 1161.79 723.622 1155.44 725.923 1148.92 z"/>
<path transform="translate(0,0)" fill="rgb(241,241,237)" d="M 769.335 1550.18 C 791.414 1560.62 812.424 1568.54 836.562 1572.92 L 809.175 1589.86 C 800.334 1594.94 791.447 1599.53 782.253 1603.93 C 773.108 1601.51 764.283 1597.53 755.92 1593.16 C 759 1578.59 764.412 1564.22 769.335 1550.18 z"/>
<path transform="translate(0,0)" fill="rgb(241,241,237)" d="M 933.175 1270.19 C 940.563 1274.31 947.502 1287.62 951.347 1294.96 C 955.119 1302.16 959.11 1311.11 956.209 1319.31 C 955.275 1321.95 953.532 1324.45 950.77 1325.4 C 948.251 1326.27 945.832 1325.65 943.547 1324.48 C 940.448 1322.89 938.809 1319.98 937.763 1316.81 C 937.138 1314.91 936.848 1313.79 935.4 1312.33 L 933.867 1313.33 C 933.077 1318.09 935.93 1322.31 936.396 1326.99 C 936.599 1329.03 936.284 1328.78 935.093 1330.26 C 932.176 1331.73 930.578 1331.57 927.491 1331.13 C 923.661 1326.18 923.982 1319.25 920.433 1315 L 918.291 1315 C 916.737 1319.71 920.915 1324.84 918.404 1329.1 C 916.019 1328.98 915.293 1328.49 913.257 1327.36 C 906.198 1316.31 900.958 1294.44 898.337 1281.36 C 911.824 1280.3 921.399 1276.7 933.175 1270.19 z"/>
<path transform="translate(0,0)" fill="rgb(241,241,237)" d="M 1407.5 1523.02 L 1409.1 1523.24 L 1408.67 1524.28 C 1354.49 1562.46 1298.14 1592.16 1236.29 1615.76 L 1235 1615.94 L 1235.09 1614.52 C 1277.35 1566.84 1347.74 1540.18 1407.5 1523.02 z"/>
<path transform="translate(0,0)" fill="rgb(241,241,237)" d="M 740.854 817.059 C 762.934 815.194 796.046 831.051 817.329 838.948 C 807.976 849.56 800.843 860.981 793.586 873.049 C 785.085 869.244 775.724 866.449 766.954 863.256 C 750.598 857.3 734.35 850.804 717.27 847.216 C 723.924 836.93 730.403 823.738 740.854 817.059 z"/>
<path transform="translate(0,0)" fill="rgb(241,241,237)" d="M 1014.66 765.973 C 1023.13 767.065 1031.59 767.566 1040.05 768.906 C 1043.89 783.624 1045.29 799.85 1043.61 814.977 C 1040.98 838.648 1029.97 860.186 1011.43 875.186 L 1002.24 881.119 L 988.226 868.949 C 1012.37 834.773 1018.43 807.104 1014.66 765.973 z"/>
<path transform="translate(0,0)" fill="rgb(241,241,237)" d="M 849.509 837.794 A 408.698 408.698 0 0 1 856 840.244 C 891.624 854.048 928.438 873.708 944.27 910.332 C 966.734 962.299 947.282 1040.41 927.202 1091.31 C 920.072 1086.56 940.245 991.204 941.561 974.962 C 943.138 955.495 943.198 933.424 935.77 915.025 C 924.066 886.036 898.85 871.562 870.52 861.926 C 859.771 858.27 848.573 855.401 838.178 850.822 C 837.782 850.648 837.391 850.466 836.997 850.287 C 841.541 846.121 845.591 842.595 849.509 837.794 z"/>
<path transform="translate(0,0)" fill="rgb(241,241,237)" d="M 664.998 1027.36 C 664.343 1025.11 663.709 1023.09 664.481 1020.74 C 666.355 1015.05 670.968 1006.66 676.621 1004.14 C 687.116 999.451 706.234 1011.04 715.989 1015.19 L 718.136 1014.12 C 725.055 1017.08 731.982 1020 738.763 1023.26 C 735.032 1034.35 721.002 1081.17 715.767 1087.51 L 711.873 1088.06 L 711.904 1088.95 L 714.513 1090.98 L 713.89 1093.81 L 713.423 1092.25 C 697.838 1082.26 670.683 1083.21 658.16 1070.76 C 646.516 1059.19 663.206 1045.33 662.982 1033.56 C 662.972 1033.06 662.93 1032.56 662.905 1032.06 C 663.317 1029.54 663.247 1029.17 664.998 1027.36 z"/>
<path transform="translate(0,0)" fill="rgb(0,0,7)" d="M 715.989 1015.19 L 718.136 1014.12 C 725.055 1017.08 731.982 1020 738.763 1023.26 C 735.032 1034.35 721.002 1081.17 715.767 1087.51 L 711.873 1088.06 L 711.904 1088.95 L 714.513 1090.98 L 713.89 1093.81 L 713.423 1092.25 C 697.838 1082.26 670.683 1083.21 658.16 1070.76 C 646.516 1059.19 663.206 1045.33 662.982 1033.56 C 662.972 1033.06 662.93 1032.56 662.905 1032.06 C 663.317 1029.54 663.247 1029.17 664.998 1027.36 C 666.817 1028.81 667.963 1029.81 669.061 1031.88 C 669.319 1043.08 663.289 1047.78 660.026 1057.44 C 659.051 1060.33 659.185 1063.64 660.83 1066.28 C 667.147 1076.41 702.806 1083.97 714.77 1086.82 C 721.663 1065.75 730.226 1045.22 736.506 1023.95 A 1418.5 1418.5 0 0 1 715.989 1015.19 z"/>
<path transform="translate(0,0)" fill="rgb(241,241,237)" d="M 959.482 747.382 A 94.6096 94.6096 0 0 1 963.709 747.1 C 977.648 746.43 1030.14 747.824 1039.09 756.108 L 1038.96 757.702 C 1032.83 761.039 1016.68 756.904 1009.38 756.37 C 989.421 754.912 966.74 756.811 947.276 761.19 C 938.146 763.244 930.149 768.084 925.303 776.287 C 921.906 782.036 920.672 788.807 922.401 795.311 C 924.099 801.7 928.906 807.952 934.778 811.042 C 940.025 813.803 946.223 814.013 951.745 811.936 C 957.993 809.586 963.152 804.43 965.736 798.3 C 967.987 792.958 968.438 786.807 965.919 781.477 C 962.987 775.274 957.395 772.279 951.187 770.121 L 949.998 769.719 L 950.926 767.597 L 952.975 768.705 C 959.358 767.561 965.831 766.939 972.27 766.193 C 984.67 765.145 996.561 764.797 1008.96 765.988 C 1011.79 803.921 1005.84 834.441 982.695 865.445 C 968.395 854.858 955.424 842.598 941.967 830.994 C 932.715 823.016 921.929 815.716 914.1 806.325 C 911.027 802.638 908.897 799.08 908.271 794.255 C 906.988 784.36 910.999 772.074 917.177 764.345 C 927.517 751.411 944.141 749.164 959.482 747.382 z"/>
<path transform="translate(0,0)" fill="rgb(241,241,237)" d="M 713.423 1092.25 C 704.677 1107.83 699.85 1142 693.715 1159.64 C 692.197 1164.01 689.314 1169.08 684.642 1170.67 C 676.672 1173.37 657.158 1163.93 649.044 1160.74 C 640.992 1157.57 620.586 1151.37 617.094 1143.34 C 616.604 1130.76 652.919 1042.27 660.115 1029.53 L 662.905 1032.06 C 662.93 1032.56 662.972 1033.06 662.982 1033.56 C 663.206 1045.33 646.516 1059.19 658.16 1070.76 C 670.683 1083.21 697.838 1082.26 713.423 1092.25 z"/>
<path transform="translate(0,0)" fill="rgb(241,241,237)" d="M 756.902 1455.77 C 767.848 1457.08 780.681 1463.96 791.144 1468.01 C 787.496 1480.62 770.463 1527.5 763.283 1536.67 C 762.427 1536.84 760.875 1537.1 760.117 1537.47 C 755.824 1539.56 744.991 1578.31 742.052 1585.92 C 733.526 1582.01 725.32 1577.35 717.065 1572.89 C 701.129 1563.9 684.015 1555.12 670.355 1542.84 C 698.171 1505.99 722.138 1485.25 756.902 1455.77 z"/>
<path transform="translate(0,0)" fill="rgb(241,241,237)" d="M 944.879 703.398 C 949.065 703.07 953.369 703.376 957.554 703.658 C 988.401 705.744 1011.69 720.981 1031.54 743.765 C 1008.24 739.259 982.827 736.818 959.144 738.634 C 941.309 740.001 922.164 743.415 910.095 757.974 C 902.537 767.092 897.195 781.45 898.603 793.376 C 899.332 799.556 901.796 806.026 905.589 810.975 C 915.498 823.899 957.757 857.228 972.553 869.371 C 978.275 874.197 985.72 878.519 990.563 884.184 C 992.472 886.416 993.859 889.108 993.516 892.131 C 993.282 894.196 993.364 894.639 991.695 895.961 C 949.635 858.862 902.888 833.075 853.117 807.936 C 854.882 783.509 861.272 757.889 876.868 738.437 C 893.339 717.893 919.15 706.277 944.879 703.398 z"/>
<path transform="translate(0,0)" fill="rgb(241,241,237)" d="M 712.799 855.564 C 734.163 860.812 771.118 874.941 791.437 884.024 A 2162.98 2162.98 0 0 0 767.392 947.987 C 763.252 959.211 759.488 971.311 754.106 981.992 C 752.395 985.386 751.44 987.149 747.767 988.333 C 733.64 983.891 719.685 978.247 705.748 973.2 C 695.184 969.374 683.158 966.044 673.291 960.784 C 671.833 960.006 668.081 957.889 667.866 956.203 C 667.19 950.886 707.021 864.991 712.799 855.564 z"/>
<path transform="translate(0,0)" fill="rgb(241,241,237)" d="M 425.707 1221.86 C 439.45 1231.7 452.428 1244.99 465.259 1256.16 A 1011.84 1011.84 0 0 0 531.291 1309.56 A 1145.63 1145.63 0 0 0 610.817 1363.56 C 628.393 1374.68 646.493 1385.24 663.415 1397.33 C 651.636 1412.55 638.128 1426.84 625.699 1441.59 C 614.127 1454.56 603.365 1468.3 592.737 1482.04 C 579.022 1466.29 563.112 1452.36 549.307 1436.5 C 507.099 1388.03 473.715 1336.93 447.274 1278.32 C 438.937 1259.85 431.004 1241.49 425.707 1221.86 z"/>
<path transform="translate(0,0)" fill="rgb(241,241,237)" d="M 711.5 1251.33 C 716.97 1263.19 725.468 1273.59 733.457 1283.83 C 751.848 1307.4 771.79 1328.73 786.522 1355 C 776.818 1376.48 761.695 1428.01 750.095 1442.52 C 742.6 1451.89 731.6 1459.64 721.654 1466.21 C 720.372 1467.2 718.807 1468.19 717.694 1469.35 C 716.746 1471.43 717.377 1470.55 715.559 1472.23 C 694.713 1491.49 677.233 1513.04 658.326 1534.09 C 640.12 1522.11 620.351 1507.61 605.66 1491.51 C 617.047 1476 628.232 1460.19 640.626 1445.46 C 651.386 1432.68 663.957 1420.77 673.852 1407.35 C 687.804 1388.43 697.219 1356.06 701.239 1333.28 C 706.047 1306.04 705.704 1278.47 711.5 1251.33 z"/>
<path transform="translate(0,0)" fill="rgb(0,0,7)" d="M 717.694 1469.35 C 714.076 1470.57 710.975 1471.7 707.127 1471.64 C 700.18 1468.24 694.426 1462.28 689.725 1456.2 C 687.644 1453.5 686.549 1450.94 687.211 1447.48 A 12.3005 12.3005 0 0 1 693.189 1439.2 C 695.963 1437.59 699.3 1437.02 702.404 1437.92 C 712.18 1440.76 716.22 1457.37 721.072 1465.28 C 721.263 1465.59 721.46 1465.9 721.654 1466.21 C 720.372 1467.2 718.807 1468.19 717.694 1469.35 z"/>
<path transform="translate(0,0)" fill="rgb(241,241,237)" d="M 696.008 1441.81 C 698.032 1441.85 700.74 1441.73 702.499 1442.86 C 707.705 1446.21 712.75 1455.87 713.391 1461.91 C 713.68 1464.64 713.337 1464.83 711.707 1466.87 C 707.908 1465.87 704.864 1464.93 701.751 1462.48 C 697.539 1459.16 692.884 1454.77 692.669 1448.98 C 692.553 1445.84 694.145 1444.09 696.008 1441.81 z"/>
<path transform="translate(0,0)" fill="rgb(241,241,237)" d="M 1619.54 1200.4 C 1623.36 1199.67 1627.75 1199.83 1631.66 1199.6 C 1627.88 1210.35 1623.53 1220.94 1619.41 1231.57 C 1600.76 1235.44 1580.95 1236.27 1562.05 1239.25 C 1528.08 1244.6 1494.96 1252.75 1461.9 1262.18 A 1139 1139 0 0 0 1111.49 1434.84 C 1081.56 1456.41 1053.68 1480.92 1023.91 1502.81 L 901.874 1592.36 C 885.651 1604.27 868.854 1615.44 852.976 1627.8 C 842.819 1625.56 833.106 1622.35 823.25 1619.08 C 816.317 1616.19 808.742 1614.11 801.61 1611.69 C 881.94 1565.24 955.124 1507.29 1030.6 1453.59 C 1156.65 1363.91 1267.79 1297.81 1415.36 1247 C 1480.81 1224.46 1550.45 1206.79 1619.54 1200.4 z"/>
<path transform="translate(0,0)" fill="rgb(241,241,237)" d="M 717.6 1178.91 C 756.474 1179.63 813.631 1196.36 850.773 1209.7 C 859.947 1234.79 870.208 1258.89 881.573 1283.05 C 901.6 1325.64 923.839 1378.46 905.887 1425.4 C 898.779 1443.99 887.393 1461.21 878.389 1478.96 C 866.879 1501.64 858.059 1524.81 849.452 1548.72 L 844.744 1565.66 C 821.204 1561.01 799.494 1552.79 777.747 1542.87 C 781.029 1531.02 786.114 1519.62 790.699 1508.23 C 801.061 1482.49 812.355 1455.62 817.211 1428.17 C 825.227 1382.86 797.747 1340.3 770.008 1307.04 C 758.479 1293.22 745.527 1280.11 735.205 1265.35 C 714.428 1235.63 711.214 1213.84 717.6 1178.91 z"/>
<path transform="translate(0,0)" fill="rgb(241,241,237)" d="M 871.746 884.383 C 884.317 882.981 898.268 886.77 908.254 894.519 C 922.868 905.86 929.672 922.797 931.578 940.747 C 935.97 982.101 920.23 1020.87 917.316 1061.53 C 916.22 1076.83 918.09 1091.67 918.646 1106.91 C 920.248 1150.78 922.845 1193.81 928.385 1237.39 C 912.123 1247.84 900.707 1253.04 881.166 1253.92 C 865.562 1205.96 844.061 1159.93 836.667 1109.47 C 834.675 1095.88 835.444 1081.33 835.087 1067.59 C 834.733 1054.01 833.351 1040.69 831.628 1027.23 C 827.639 996.706 823.324 967.273 825.794 936.395 C 821.502 935.343 817.013 934.868 812.641 934.219 C 808.019 986.998 822.59 1040.4 824.016 1093.28 C 803.885 1108.54 758.078 1120.81 732.317 1124.77 C 742.597 1089.29 752.158 1052.8 765.342 1018.28 C 768.55 1009.88 775.238 1003.37 778.424 994.926 C 786.523 973.458 795.205 939.653 808.732 921.927 C 824.172 901.693 846.426 887.258 871.746 884.383 z"/>
<path transform="translate(0,0)" fill="rgb(0,0,7)" d="M 874.973 1063.79 C 875.411 1063.89 875.853 1063.98 876.287 1064.1 C 881.145 1065.43 884.193 1067.89 886.525 1072.37 C 889.745 1078.54 890.087 1085.92 887.828 1092.47 C 885.857 1098.19 882.434 1100.92 877.132 1103.47 C 876.691 1103.4 876.246 1103.34 875.808 1103.25 C 871.239 1102.31 867.745 1100.45 865.346 1096.32 C 862.196 1090.91 862.188 1083.95 863.938 1078.07 C 865.957 1071.28 868.821 1067.2 874.973 1063.79 z"/>
<path transform="translate(0,0)" fill="rgb(241,241,237)" d="M 877.423 1069.52 C 877.923 1069.9 878.429 1070.28 878.922 1070.68 C 881.925 1073.08 883.842 1076.08 884.096 1079.97 C 884.299 1083.08 882.841 1085.14 880.949 1087.38 C 879.775 1087.27 878.081 1087.23 876.915 1086.88 C 874.602 1086.19 874.488 1085.57 873.409 1083.57 C 873.16 1078.84 875.762 1073.89 877.423 1069.52 z"/>
<path transform="translate(0,0)" fill="rgb(241,241,237)" d="M 872.634 1070.96 L 873.341 1071.76 A 90.5309 90.5309 0 0 0 871.559 1077.26 C 870.245 1081.99 868.719 1086.82 871.269 1091.25 C 874.813 1093.09 879.118 1091.37 883.014 1091.39 C 884.016 1093.88 883.147 1094.26 882.144 1096.63 C 878.578 1098.81 876.253 1099.19 872.276 1098.41 C 869.433 1096.55 868.145 1094.65 867.538 1091.35 C 866.185 1083.98 868.304 1076.9 872.634 1070.96 z"/>
<path transform="translate(0,0)" fill="rgb(193,66,64)" d="M 874.841 906.368 C 884.877 905.884 894.743 907.453 903.004 913.572 C 910.661 919.244 915.394 928.013 916.551 937.417 C 917.852 947.99 914.925 959.124 908.305 967.509 C 901.919 975.597 892.921 980.252 882.74 981.249 C 871.416 981.444 862.444 980.668 852.979 973.737 C 845.096 967.965 839.582 959.307 838.223 949.578 A 36.3349 36.3349 0 0 1 845.204 922.27 C 852.622 912.525 863.007 907.928 874.841 906.368 z"/>
<path transform="translate(0,0)" fill="rgb(241,241,237)" d="M 869.837 951.9 L 866.665 952.449 C 864.835 951.707 863.58 951.546 862.322 949.927 C 860.094 947.058 859.991 944.061 860.724 940.637 C 861.409 937.438 862.744 935.686 865.395 933.894 C 868.087 934.351 868.817 934.566 870.603 936.881 C 872.883 939.836 872.253 942.936 871.872 946.407 C 870.63 948.385 870.08 949.569 869.837 951.9 z"/>
<path transform="translate(0,0)" fill="rgb(241,241,237)" d="M 871.872 946.407 C 874.344 942.792 876.411 942.039 880.478 940.614 C 881.959 938.769 881.55 939.805 881.771 937.53 C 880.218 938.165 876.92 940.006 875.46 939.414 C 873.155 938.48 870.256 935.07 869.623 932.689 C 869.246 931.272 869.971 930.237 870.934 929.224 C 873.079 926.966 878.265 925.028 881.344 925.707 C 882.621 925.989 883.86 927.092 884.491 928.217 C 885.539 930.087 885.795 932.522 885.679 934.623 C 888.975 933.469 889.807 932.544 893.115 933.922 C 895.544 937.149 897.232 940.082 896.699 944.276 C 896.42 946.474 895.014 948.121 893.192 949.269 C 891.551 950.303 889.632 951.066 888.042 952.131 C 885.987 953.506 884.794 956.275 883.632 958.395 C 881.307 959.574 879.6 960.113 876.951 959.45 C 874.499 958.836 873.256 958.202 872.069 955.931 C 871.148 954.168 871.381 953.296 869.837 951.9 C 870.08 949.569 870.63 948.385 871.872 946.407 z"/>
<path transform="translate(0,0)" fill="rgb(241,241,237)" d="M 1547.79 1355.4 C 1551.78 1355.14 1555.79 1355.7 1559.75 1356.07 C 1552.25 1370.02 1542.29 1382.85 1532.81 1395.5 C 1507.79 1428.91 1481.44 1459.22 1451.2 1488.09 C 1443.95 1495.02 1435.89 1504.17 1426.84 1508.68 C 1413.66 1515.25 1393.55 1515.93 1378.91 1520.49 C 1337.54 1533.39 1288.15 1555.56 1254.49 1582.92 C 1239.95 1594.74 1227.56 1608.34 1215.32 1622.45 C 1155.47 1641.66 1093.5 1650.45 1030.75 1651.35 L 1020.05 1651.75 C 1033.17 1641.02 1047.75 1631.58 1061.28 1621.32 C 1084.25 1603.92 1106.74 1585.67 1128.98 1567.34 C 1161.6 1540.47 1192.76 1511.88 1226.31 1486.09 C 1320.13 1413.96 1429.03 1364.79 1547.79 1355.4 z"/>
<path transform="translate(0,0)" fill="rgb(241,241,237)" d="M 524.798 641.886 C 524.578 646.755 507.805 680.418 504.736 690.143 C 485.115 752.324 473.686 819.187 475.318 884.465 C 479.848 1065.64 555.241 1218.52 685.481 1342.64 C 681.141 1357.87 675.454 1372.63 669.972 1387.49 C 656.26 1379.29 642.186 1371.64 628.422 1363.51 C 593.549 1344 559.588 1319.36 527.748 1295.28 C 508.324 1280.59 426.909 1215.99 418.437 1198.99 C 410.725 1183.51 403.502 1134.64 400.807 1115.03 A 645.577 645.577 0 0 1 524.798 641.886 z"/>
<path transform="translate(0,0)" fill="rgb(241,241,237)" d="M 1606.62 1245.42 C 1609.25 1245.07 1610.61 1244.86 1613.15 1245.87 C 1615.35 1257.33 1573.77 1331.17 1565.34 1345.19 C 1511.35 1344.2 1455.06 1357.04 1404.7 1375.85 C 1361.75 1391.9 1318.5 1411.68 1279.65 1436.13 C 1230.01 1467.37 1186.7 1505.23 1142.14 1543.02 C 1112.5 1568.17 1082.35 1592.04 1051.59 1615.78 C 1036.32 1627.57 1021.34 1639.94 1005.5 1650.94 C 967.524 1651.54 927.643 1647.08 890.799 1637.88 C 882.608 1636 874.489 1633.7 866.362 1631.57 L 951.755 1568.91 C 986.724 1543.57 1022.11 1518.68 1056.59 1492.69 C 1092.6 1465.56 1126.23 1436.25 1164.11 1411.46 A 1093.29 1093.29 0 0 1 1490.46 1267.7 C 1528.12 1257.93 1567.86 1249.3 1606.62 1245.42 z"/>
<path transform="translate(0,0)" fill="rgb(241,241,237)" d="M 1002.7 394.44 C 1062.14 390.741 1123.55 399.505 1181.14 413.703 A 631.017 631.017 0 0 1 1562.16 694.12 C 1653.93 846.308 1677.32 1010.09 1634.69 1182.5 C 1589.16 1189.75 1543.96 1195.62 1499.07 1206.47 C 1373.44 1236.85 1251.57 1292.23 1141.95 1360.28 C 1072.07 1403.65 1005.49 1452.65 939.392 1501.52 C 922.373 1497.98 905.58 1493.52 888.554 1490 C 923.822 1426.34 932.929 1407.83 915.966 1335.17 C 920.525 1336.57 926.027 1338.82 930.782 1338.83 C 939.768 1338.84 956.291 1332.88 962.348 1326.37 C 965.967 1322.49 967.589 1317.44 967.287 1312.17 C 966.571 1299.66 950.745 1272.6 941.46 1264 C 940.983 1239.05 936.33 1213.86 934.095 1188.99 C 932.14 1167.24 932.349 1144.88 929.053 1123.33 C 952.68 1065.06 977.29 1002.15 963.72 938.266 C 961.133 926.088 956.613 914.586 952.261 902.96 C 959.028 909.824 967.44 918.99 977.17 921.098 C 980.946 921.916 984.985 921.329 988.23 919.183 C 996.694 913.585 1000.15 900.225 1002.04 890.783 C 1015 883.201 1026.41 875.735 1035.23 863.331 C 1054.27 836.528 1054.57 812.849 1051.2 781.696 C 1050.32 773.623 1050.01 765.25 1048.47 757.281 C 1045.14 740.053 1026.17 722.044 1012.15 712.483 A 106.947 106.947 0 0 0 931.652 695.668 C 902.072 701.421 877.748 718.417 860.936 743.194 C 843.563 773.995 847.926 788.548 839.168 818.808 C 840.834 822.509 843.498 826.936 843.533 831.025 C 841.191 833.05 839.659 833.332 836.566 833.01 C 829.902 832.316 822.874 829.168 816.563 826.968 C 797.986 820.492 760.368 804.162 741.929 806.379 C 728.643 807.976 722.812 819.74 715.171 828.983 C 710.74 825.617 706.854 822.43 700.948 823.383 C 696.276 824.136 692.496 827.243 689.8 830.989 C 683.588 839.618 676.538 862.032 678.487 872.463 C 681.112 875.718 685.092 877.186 688.771 879.003 C 683.075 892.912 654.807 949.762 657.385 960.071 C 658.395 964.108 660.69 966.753 664.104 969.031 C 671.145 973.729 730.675 995.724 740.777 997.779 C 744.51 998.538 749.213 998.592 752.938 997.761 C 756.421 996.984 758.083 994.995 759.902 992.118 C 770.132 975.934 782.981 934.514 789.979 914.913 C 793.033 906.36 796.815 898.273 800.126 889.846 C 804.176 879.537 807.872 868.328 814.25 859.189 C 816.852 855.46 821.1 849.555 825.84 848.706 L 826.966 850.155 C 820.097 870.602 806.095 894.358 797.401 915.176 C 785.418 943.871 776.792 973.945 763.54 1002.12 C 753.438 1004.15 744.882 1006.52 735.978 1011.79 C 720.275 1005.64 704.067 995.439 687.45 992.487 C 657.177 987.11 657.514 1021.93 645.942 1030.29 C 642.466 1029.99 639.338 1029.35 636.114 1031.02 C 630.988 1036.55 626.039 1050.82 625.8 1058.44 C 627.179 1061.04 629.621 1061.71 632.175 1062.88 L 633.47 1063.46 L 631.889 1064.07 L 633.553 1063.67 C 624.248 1083.94 615.146 1106.3 608.724 1127.65 C 606.855 1133.86 604.78 1143.08 608.334 1149.03 C 615.616 1161.21 655.108 1175.33 669.499 1179.25 C 676.63 1181.19 687.034 1182.61 693.647 1178.36 C 698.068 1175.52 701.031 1170.75 702.913 1165.95 C 707.602 1154.01 710.231 1135.37 714.025 1122.17 C 723.912 1087.79 736.597 1053.65 743.759 1018.62 L 756.036 1014.99 C 737.168 1075.89 710.394 1143.54 703.346 1206.92 C 702.364 1206.74 701.381 1206.56 700.406 1206.35 C 691.861 1204.48 685.78 1202.24 681.061 1194.56 C 679.976 1192.79 679.886 1192.19 678.051 1191.15 C 676.39 1192.58 676.411 1192.9 676.145 1195.02 C 675.653 1198.94 676.71 1205.62 679.474 1208.64 C 684.318 1213.92 694.704 1216.24 701.525 1217.23 C 701.705 1223.43 703.763 1230.04 703.468 1236.04 C 703.01 1245.37 697.955 1255.23 696.326 1264.57 C 692.876 1284.36 691.531 1304.83 689.066 1324.8 C 571.173 1210.27 498.331 1067.55 491.002 901.838 C 486.872 808.473 503.431 717.449 545.561 633.8 C 554.952 615.156 564.994 595.087 579.256 579.695 C 594.425 563.326 612.579 548.9 629.869 534.843 A 623.63 623.63 0 0 1 1002.7 394.44 z"/>
<path transform="translate(0,0)" fill="rgb(0,0,7)" d="M 1348.34 595.198 C 1352.02 594.892 1355.73 594.439 1359.32 595.523 C 1365.25 597.315 1370.36 600.949 1373.34 606.465 A 22.0321 22.0321 0 0 1 1374.78 623.892 C 1372.06 631.876 1366.54 635.999 1359.17 639.476 C 1355.37 639.725 1351.74 639.899 1348.02 638.935 A 22.1403 22.1403 0 0 1 1333.94 628.01 A 22.1847 22.1847 0 0 1 1332.51 610.675 C 1335.27 602.425 1340.79 598.729 1348.34 595.198 z"/>
<path transform="translate(0,0)" fill="rgb(241,241,237)" d="M 1346.9 605.137 C 1348.98 604.856 1351.12 604.544 1353.22 604.624 A 15.473 15.473 0 0 1 1364.58 610.34 C 1366.69 612.929 1367.56 616.101 1367.07 619.405 C 1366.3 624.52 1363.06 627.357 1359.07 630.214 C 1357.45 630.615 1355.94 630.955 1354.27 631.03 C 1350.15 631.216 1346.74 630.26 1343.75 627.313 C 1340.97 624.583 1339.79 620.759 1340.08 616.922 C 1340.48 611.7 1343.13 608.486 1346.9 605.137 z"/>
<path transform="translate(0,0)" fill="rgb(0,0,7)" d="M 1067.46 1258.37 C 1075.43 1264 1074.88 1274.88 1081.61 1281.39 C 1087.22 1286.83 1098.88 1286.79 1103.33 1293.05 C 1101.54 1299.13 1087.24 1299.28 1082.79 1304.08 C 1082.55 1304.35 1082.32 1304.64 1082.08 1304.92 C 1076.83 1311 1074.49 1319.27 1070.11 1326.04 C 1062.62 1320.59 1063.35 1310.58 1056.42 1304.62 C 1050.83 1299.81 1039.94 1299.82 1035.45 1293.55 C 1038.34 1286.33 1048.84 1287.71 1054.31 1282.7 C 1062.08 1275.58 1061.35 1265.77 1067.46 1258.37 z"/>
<path transform="translate(0,0)" fill="rgb(241,241,237)" d="M 1068.47 1276.59 C 1070.01 1278.01 1071.03 1280.2 1072.31 1281.89 C 1075.97 1286.68 1079.92 1289.83 1084.94 1293.09 C 1076.65 1297.7 1073.06 1300.91 1070.07 1310.08 C 1065.04 1306.28 1063.3 1298.45 1054.76 1292.6 C 1060.94 1287.89 1064.72 1283.26 1068.47 1276.59 z"/>
<path transform="translate(0,0)" fill="rgb(0,0,7)" d="M 685.248 631.631 C 691.858 635.32 695.237 647.11 698.137 653.929 C 704.771 656.721 715.622 659.827 720 665.701 C 719.385 668.469 718.129 669.225 715.623 670.361 C 710.797 672.549 705.001 674.208 700.584 677.103 C 693.686 681.623 690.822 694.68 685.526 701.415 C 679.557 697.601 676.868 685.172 673.85 678.75 C 668.203 676.061 653.725 670.637 651.531 665.005 C 655.461 660.13 667.756 656.553 673.489 652.879 C 673.83 652.661 674.165 652.434 674.502 652.212 C 677.809 645.541 679.831 636.879 685.248 631.631 z"/>
<path transform="translate(0,0)" fill="rgb(241,241,237)" d="M 686.5 644.744 C 689.508 648.145 690.686 653.917 691.653 658.241 C 696.028 660.774 700.487 662.652 705.158 664.535 C 693.689 670.208 692.434 674.779 686.222 685.042 L 685.511 686.203 C 680.661 674.844 676.721 671.363 665.762 666.2 C 677.188 660.803 680.823 656.009 686.5 644.744 z"/>
<path transform="translate(0,0)" fill="url(#Gradient1)" d="M 1233.45 1153.18 C 1239.68 1152.64 1244.87 1152.57 1250.67 1155.19 C 1257.81 1158.41 1263.04 1164.53 1265.53 1171.91 C 1267.93 1179.05 1267.65 1187.02 1264.17 1193.76 C 1259.93 1201.97 1253.59 1205.54 1245.24 1208.42 C 1239.96 1208.92 1235.02 1208.73 1229.98 1206.9 C 1222.66 1204.25 1216.79 1198.94 1213.66 1191.79 C 1210.86 1185.38 1210.35 1178.1 1212.94 1171.54 C 1216.7 1162.03 1224.53 1157.08 1233.45 1153.18 z"/>
<path transform="translate(0,0)" fill="rgb(241,241,237)" d="M 1236.51 1161 C 1240.3 1161 1243.67 1161.14 1247.19 1162.74 A 19.6716 19.6716 0 0 1 1257.72 1174.24 C 1259.46 1179.21 1259.05 1184.57 1256.76 1189.28 C 1253.84 1195.27 1249.07 1198.05 1243.01 1200.19 C 1239.63 1200.19 1236.09 1200.22 1232.86 1199.09 A 19.6587 19.6587 0 0 1 1221.45 1188.8 A 19.1273 19.1273 0 0 1 1221.35 1173.22 C 1224.37 1166.29 1229.72 1163.46 1236.51 1161 z"/>
<path transform="translate(0,0)" fill="rgb(0,0,7)" d="M 1120.29 466.218 C 1129.8 465.693 1138.08 465.98 1146.79 470.502 C 1156.91 475.755 1164.95 485.261 1168.14 496.236 C 1171.48 507.745 1169.99 521.59 1163.79 531.903 C 1157.31 542.693 1146.81 548.257 1135.08 551.455 C 1124.38 552.773 1114.03 551.392 1104.71 545.636 A 42.4081 42.4081 0 0 1 1085.35 518.575 A 45.8577 45.8577 0 0 1 1091.83 484.358 C 1098.88 473.468 1108.06 468.862 1120.29 466.218 z"/>
<path transform="translate(0,0)" fill="rgb(241,241,237)" d="M 1122.96 473.195 C 1131.04 472.871 1138.37 474.031 1145.29 478.417 A 36.5931 36.5931 0 0 1 1161.36 502.033 A 36.2409 36.2409 0 0 1 1155.97 529.687 C 1150.07 538.419 1142.08 542.419 1132 544.467 C 1123.91 545.044 1115.89 543.462 1108.94 539.153 A 36.1152 36.1152 0 0 1 1092.76 516.35 A 34.9293 34.9293 0 0 1 1097.6 489.569 C 1103.69 480.072 1112.21 475.552 1122.96 473.195 z"/>
<path transform="translate(0,0)" fill="url(#Gradient2)" d="M 1440.85 712.442 A 199.934 199.934 0 0 1 1575.55 765.932 C 1610.74 798.988 1629.15 848.231 1630.24 895.997 C 1631.49 950.834 1612.89 1002.35 1574.68 1042.02 C 1537.53 1080.59 1491.44 1098.26 1438.34 1099.21 A 185.24 185.24 0 0 1 1311.71 1050.08 C 1273.77 1015.16 1250.8 968.12 1248.73 916.5 C 1246.54 861.962 1264.46 812.656 1301.69 772.55 C 1339.53 731.795 1386.12 714.657 1440.85 712.442 z"/>
<path transform="translate(0,0)" fill="rgb(241,241,237)" d="M 1436.7 721.426 C 1480.66 719.098 1532.18 739.493 1564.75 768.669 C 1598.84 799.198 1616.98 844.878 1619.51 890 C 1622.43 942.214 1607.6 991.086 1572.2 1030.14 C 1536.11 1069.93 1494.74 1087.09 1441.5 1089.57 C 1399.79 1091.67 1354.93 1074.56 1323.23 1047.91 C 1284.87 1015.65 1262.92 970.852 1258.8 921.213 A 185.286 185.286 0 0 1 1303.75 783.45 C 1338.52 743.015 1384.45 725.166 1436.7 721.426 z"/>
<path transform="translate(0,0)" fill="rgb(193,66,64)" d="M 1440 735.425 C 1459.28 734.584 1478.82 738.928 1497.02 744.901 C 1459.46 782.004 1419.12 802.605 1366.25 805.655 C 1347.2 806.421 1327.53 803.318 1308.89 799.507 C 1309.85 798.28 1310.81 797.088 1311.85 795.918 C 1346.59 756.673 1388.18 738.83 1440 735.425 z"/>
<path transform="translate(0,0)" fill="rgb(193,66,64)" d="M 1435.59 1007.42 C 1468.92 1004.25 1519.24 1024.2 1554.25 1030.66 C 1527.72 1053.86 1499.58 1068 1464.77 1073.99 C 1422.56 1080.97 1380.96 1071.36 1345.62 1047.62 C 1369.74 1023.24 1401.39 1009.47 1435.59 1007.42 z"/>
<path transform="translate(0,0)" fill="rgb(193,66,64)" d="M 1508.78 748.789 C 1527.63 759.35 1545.14 768.423 1560.88 783.602 C 1595.35 816.846 1606.25 859.637 1607.2 906.161 C 1594.44 911.522 1579.77 914.899 1566.06 916.542 C 1488.38 925.849 1466.55 852.712 1397.25 845.088 C 1351.08 840.287 1311.9 865.825 1272.58 886.281 C 1277.62 857.272 1286.67 830.423 1303.3 805.977 A 252.397 252.397 0 0 0 1359.02 814.109 C 1416.99 815.795 1467.52 787.49 1508.78 748.789 z"/>
<path transform="translate(0,0)" fill="rgb(193,66,64)" d="M 1370.51 854.283 C 1430.6 847.809 1456.32 891.481 1504.21 914.493 C 1538.82 931.129 1571.94 926.638 1607.06 914.19 C 1601.72 958.886 1590.29 988.344 1560.93 1022.74 C 1538.05 1018.43 1515.73 1012.81 1493.21 1006.97 C 1477.64 1003.29 1462.04 999.92 1446 999.25 C 1405.43 997.557 1367.45 1014.82 1338.03 1041.87 C 1333.61 1038.29 1329.2 1034.6 1325.11 1030.64 C 1285.99 992.783 1272.18 952.299 1271.14 898.959 C 1304.27 884.27 1333.89 860.264 1370.51 854.283 z"/>
</svg>