<svg version="1.1" xmlns="http://www.w3.org/2000/svg" style="display: block;" viewBox="0 0 2048 1152" width="1820" height="1024">
<path transform="translate(0,0)" fill="rgb(45,56,66)" d="M 0 0 L 2046.25 0 C 2048.65 3.7775 2047.99 9.25049 2047.99 13.5932 L 2048 835.128 L 2048.01 1061.94 L 2048 1122.09 C 2047.99 1130.36 2049.11 1140.48 2047.72 1148.51 C 2047.5 1149.77 2046.93 1150.93 2046.25 1152 L 0 1152 L 0 0 z"/>
<path transform="translate(0,0)" fill="rgb(17,24,45)" d="M 1762.69 95.4989 C 1780.1 94.4367 1796.63 94.5266 1813.73 98.4152 A 160.396 160.396 0 0 1 1888.67 138.932 C 1892.21 142.338 1896.54 146.128 1899.17 150.283 C 1906.95 147.671 1913.66 145.98 1921.79 148.239 C 1928.46 150.088 1934.38 154.494 1937.71 160.598 A 23.9838 23.9838 0 0 1 1939.53 179.438 C 1936.52 188.786 1928.28 195.13 1919.81 199.359 C 1920.45 200.097 1921.01 200.787 1921.55 201.599 C 1937.98 226.018 1940.69 270.404 1935.36 298.66 C 1929.06 332.092 1909.51 372.309 1880.66 391.932 C 1882.32 395.342 1882.4 400.732 1881.76 404.407 C 1880.34 412.483 1874.48 419.509 1867.87 424.041 C 1855.05 432.83 1843.86 430.12 1829.61 427.543 C 1831.9 431 1831.35 436.767 1831.02 440.724 C 1829.36 460.348 1815.63 498.013 1800.5 510.927 C 1810.69 516.508 1857.42 567.129 1869.64 579.041 C 1876.19 585.412 1891.59 596.01 1896.05 602.597 C 1910.52 598.814 1924.22 595.954 1937.96 603.921 C 1958.85 616.028 1950.93 628.235 1958.75 641.878 C 1963.34 649.892 1973.03 655.9 1975.21 665.201 C 1977.02 672.952 1972.69 684.342 1968.72 690.872 C 1964.2 698.316 1960.74 695.917 1954.43 699.233 C 1950.12 701.499 1948.59 706.49 1943.18 707.41 C 1939.28 708.071 1932.94 704.821 1929.62 706.233 C 1926.98 707.357 1925.49 710.029 1922.34 710.68 C 1909.81 713.276 1876.73 702.719 1867.34 694.22 C 1860.05 687.62 1856.06 678.896 1847.79 672.986 L 1846.88 672.34 C 1844.02 671.325 1840.6 672.415 1837.51 671.035 C 1816.33 661.595 1789.14 634.011 1768.36 625.096 C 1767.85 633.495 1765.06 641.894 1759.78 648.469 C 1760.17 648.636 1760.88 648.926 1761.28 649.148 C 1767.74 652.654 1774.19 658.52 1780.16 662.894 C 1799.43 677.006 1830.17 697.388 1845.41 715.348 C 1848.6 719.099 1850.65 723.67 1852.12 728.331 C 1855.54 739.132 1857.16 761.129 1851.83 771.383 C 1854.42 772.822 1856.58 775.456 1858.14 777.946 C 1861.79 783.73 1863.56 791.128 1862 797.881 C 1859.53 808.579 1801.19 900.513 1791.28 913.947 C 1789.22 916.747 1787.24 919.166 1784.24 921.015 C 1798.99 927.419 1810.85 943.497 1819.11 956.715 C 1826.17 968.014 1840.6 989.915 1837.15 1003.79 C 1835.91 1008.79 1832.75 1012.56 1828.29 1015.07 C 1812.61 1023.9 1780.16 1014.44 1763.5 1010.02 C 1727.03 1000.35 1655.88 971.648 1636.25 936.822 C 1633.04 931.111 1631.52 924.411 1633.41 918 C 1635.48 910.946 1642.36 907.04 1648.36 903.642 C 1652.34 902.372 1654.31 900.539 1656.68 897.222 C 1661.06 891.096 1664.58 884.022 1667.7 877.188 C 1671.58 868.712 1696.84 806.74 1696.22 802.865 C 1696.23 802.689 1696.26 802.512 1696.25 802.336 C 1695.91 798.191 1689.76 792.785 1686.6 790.404 C 1681.14 787.073 1673.25 786.003 1667.07 784.535 C 1667.12 785.461 1667.1 786.367 1666.88 787.277 C 1662.77 804.908 1628.67 858.959 1614.64 867.602 C 1615.87 870.212 1615.14 873.673 1614.32 876.361 C 1612.3 882.97 1607.3 888.871 1602.66 893.856 C 1592.25 905.041 1530.58 958.178 1519.2 964.2 A 24.3158 24.3158 0 0 1 1523.94 967.688 C 1539.81 982.669 1549.09 1002.41 1557.89 1021.91 C 1560.03 1026.63 1563.66 1031.16 1563.76 1036.51 C 1563.85 1041.51 1562.24 1046.42 1558.64 1049.97 C 1552.15 1056.38 1541.72 1057.33 1533.08 1057.25 C 1484.68 1056.81 1421.2 1028.47 1387.41 994.024 C 1376.43 982.83 1363.78 967.831 1364.17 951.306 C 1364.52 936.28 1378.59 936.324 1387.43 927.919 C 1409.68 906.759 1455.85 832.245 1472.91 802.621 C 1481.96 786.888 1527.45 703.016 1523.87 689.707 C 1525.26 683.741 1518.24 666.018 1517.29 658.382 C 1515.96 647.712 1522.75 624.923 1519.95 617.708 A 50.7048 50.7048 0 0 1 1518.2 617.992 C 1494.57 621.514 1455.56 605.352 1436.71 590.931 C 1433.32 588.337 1428.78 583.982 1428.52 579.446 C 1428.05 571.126 1453.62 494.593 1458.16 480.257 C 1467.42 451.026 1477.78 421.802 1485.58 392.159 C 1487.84 383.577 1488.14 374.663 1490.34 366.076 C 1492.82 356.468 1496.25 347.118 1498.52 337.447 C 1501.04 326.68 1495.96 315.77 1499.47 304.316 C 1501.66 297.138 1517.71 259.322 1522.22 254.11 C 1533.86 240.655 1567.03 232.616 1584.68 230.363 C 1588.94 229.82 1593.13 231.325 1597.44 230.502 C 1610.12 228.086 1621.07 224.088 1634.2 223.168 C 1638.45 217.685 1642.14 196.021 1645.35 187.672 C 1649.23 177.612 1654.87 168.015 1660.86 159.082 C 1685.74 121.962 1719.68 103.985 1762.69 95.4989 z"/>
<path transform="translate(0,0)" fill="rgb(29,31,52)" d="M 1843.12 729.5 C 1850.56 735.875 1842.97 766.804 1845.47 773.717 C 1846.36 776.167 1849.74 779.537 1851.45 781.59 L 1849.7 782.008 L 1849.41 783.142 C 1846.69 780.599 1844.14 778.742 1840.88 776.946 C 1844.19 763.279 1841.58 749.199 1843.46 735.625 C 1843.78 733.328 1843.71 731.747 1843.12 729.5 z"/>
<path transform="translate(0,0)" fill="rgb(180,248,252)" d="M 1636.94 284.498 C 1641.09 286.243 1641.55 291.905 1644.62 295.194 C 1647.79 298.599 1654.83 298.1 1659.28 298.427 L 1659.4 298.989 L 1650.18 301.089 C 1646.71 303.681 1640.77 304.88 1636.65 306.064 C 1638.18 299.509 1633.11 293.518 1634.03 287.172 C 1634.16 286.25 1636.17 285.101 1636.94 284.498 z"/>
<path transform="translate(0,0)" fill="rgb(29,31,52)" d="M 1507.71 959.497 C 1509.33 959.613 1510.99 959.978 1512.59 960.24 L 1510.55 962.421 C 1510.39 963.104 1509.97 963.775 1510.07 964.47 C 1510.71 968.943 1539.28 991.912 1541.44 1005.15 C 1541.6 1006.12 1539.89 1007.88 1539.28 1008.72 C 1539.84 995.211 1504.93 970.214 1504.24 963.115 C 1505.25 962.222 1506.2 961.342 1507.06 960.305 L 1507.71 959.497 z"/>
<path transform="translate(0,0)" fill="rgb(29,31,52)" d="M 1693.39 132.497 C 1694.8 132.693 1696.15 133.04 1697.54 133.375 C 1697.08 136.056 1687.84 143.373 1685.45 145.646 C 1681.58 149.312 1677.45 152.928 1674.39 157.319 C 1668.91 165.201 1665.1 176.036 1658.26 182.704 C 1659.97 179.326 1661.86 176.018 1662.64 172.28 L 1660.65 172.639 C 1664.87 158.937 1683.21 142.141 1693.39 132.497 z"/>
<path transform="translate(0,0)" fill="rgb(29,31,52)" d="M 1377.2 969.139 C 1381.89 970.602 1400.37 993.114 1405.56 997.816 C 1414.85 1006.22 1430.61 1012.02 1438.53 1019.92 L 1438.1 1021.39 C 1435.5 1021.39 1431.6 1018.63 1429.26 1017.32 C 1411.09 1007.12 1397.08 995.782 1384.13 979.454 C 1381.66 976.339 1378.29 973.001 1377.2 969.139 z"/>
<path transform="translate(0,0)" fill="rgb(180,248,252)" d="M 1910.04 606.5 C 1914.75 605.734 1919.16 605.448 1923.85 606.643 C 1932.62 608.882 1941.89 614.505 1946.57 622.445 C 1948.45 625.638 1950.77 630.793 1949.75 634.502 C 1942.71 632.706 1930.84 618.392 1923.88 613.443 C 1919.68 610.456 1914.76 608.504 1910.04 606.5 z"/>
<path transform="translate(0,0)" fill="rgb(93,233,231)" d="M 1561.25 315.498 C 1564.45 315.069 1566.07 314.528 1569.11 315.733 L 1569.85 318.183 C 1569.55 319.474 1569.14 320.695 1568.43 321.827 C 1564.17 328.693 1557.07 334.22 1549.17 335.929 C 1546.62 335.965 1544.83 335.974 1542.57 334.702 L 1542.34 332.736 C 1546.1 324.193 1553.23 319.592 1561.25 315.498 z"/>
<path transform="translate(0,0)" fill="rgb(180,248,252)" d="M 1717.71 585.498 C 1719.98 585.505 1721.14 585.117 1722.97 586.523 C 1716.24 590.986 1709.6 596.181 1705.44 603.256 C 1701.81 609.448 1700.63 616.39 1702.53 623.356 C 1705.82 635.444 1714.18 642.209 1724.57 648.187 L 1724.11 648.891 C 1723.05 648.935 1722.05 648.867 1721 648.671 C 1712.85 647.148 1705.06 641.457 1700.69 634.521 A 31.6072 31.6072 0 0 1 1696.74 609.548 C 1699.85 597.21 1707.31 591.796 1717.71 585.498 z"/>
<path transform="translate(0,0)" fill="rgb(180,248,252)" d="M 1621.73 237.498 C 1623.05 237.257 1624.39 237.058 1625.74 237.057 C 1630.73 237.054 1639.02 240.321 1642.56 243.758 C 1645.58 249.024 1644.86 258.599 1644.28 264.478 C 1642.38 261.983 1640.05 260.777 1637.37 259.285 C 1632.21 252.303 1615.76 244.541 1607.5 241.861 C 1612.4 240.691 1617.12 239.593 1621.73 237.498 z"/>
<path transform="translate(0,0)" fill="rgb(93,233,231)" d="M 1783 374.497 C 1783.39 374.518 1784.04 374.537 1784.47 374.601 C 1787.29 375.023 1838.4 408.67 1840.55 411.502 C 1840.35 411.592 1840.16 411.709 1839.96 411.772 C 1827.76 415.424 1798.29 395.846 1787.57 389.994 C 1787.63 389.816 1787.7 389.643 1787.73 389.461 C 1788.51 385.345 1785.32 377.822 1783 374.497 z"/>
<path transform="translate(0,0)" fill="rgb(180,248,252)" d="M 1874.72 603.499 C 1875.24 603.681 1875.86 603.88 1876.36 604.126 C 1878.52 605.188 1880.09 606.915 1880.82 609.175 C 1883.07 616.217 1878.94 625.345 1875.75 631.58 C 1868.93 644.952 1855.72 658.253 1841.2 662.987 C 1839.27 660.718 1837.15 659.283 1834.69 657.674 C 1838.31 655.91 1841.73 653.894 1845.09 651.68 C 1863.05 639.828 1870.54 623.914 1874.72 603.499 z"/>
<path transform="translate(0,0)" fill="rgb(180,248,252)" d="M 1782.2 514.498 C 1783.89 514.909 1785.05 515.7 1786.15 517.127 C 1787.07 518.327 1787.51 519.607 1787.3 521.081 C 1785.8 531.696 1771.82 545.97 1763.4 552.459 C 1751.24 561.833 1735.41 568.567 1719.89 566.501 C 1719.32 563.387 1717.24 561.217 1715.21 558.959 C 1727.32 558.868 1738.42 556.498 1749.12 550.715 C 1762.45 543.51 1777.69 529.233 1782.2 514.498 z"/>
<path transform="translate(0,0)" fill="rgb(180,248,252)" d="M 1483.7 813.496 C 1488.61 815.816 1496.75 834.306 1501.49 839.906 C 1511.76 852.039 1523.8 858.143 1536.19 867.414 L 1536.9 867.949 C 1535.43 871.096 1531.94 872.223 1528.95 873.503 C 1525.94 872.978 1522.2 870.053 1519.5 868.387 C 1497.85 855.015 1491.56 843.347 1476.67 824.554 C 1479.87 822.008 1482.51 817.387 1483.7 813.496 z"/>
<path transform="translate(0,0)" fill="rgb(180,248,252)" d="M 1548.93 583.497 C 1553.23 583.495 1559.97 588.855 1563.86 591.068 C 1576.65 598.343 1589.69 602.646 1601.73 609.171 C 1602.48 613.502 1599.96 618.027 1597.57 621.503 L 1597.33 622.024 L 1595.96 622.449 C 1573.51 613.632 1564.16 605.682 1545.06 592.274 C 1547.47 589.761 1548.41 586.846 1548.93 583.497 z"/>
<path transform="translate(0,0)" fill="rgb(180,248,252)" d="M 1652.78 278.5 C 1670.76 277.628 1696.39 275.261 1712.71 284.462 C 1712.9 284.622 1713.1 284.778 1713.3 284.941 C 1715.72 287.002 1720.22 292.864 1720.5 295.946 L 1719.32 296.768 L 1714.19 295.63 C 1697.99 284.133 1659.09 295.449 1649.3 288.133 C 1647.68 285.604 1647.54 285.093 1647.46 282.085 C 1649.13 279.498 1649.98 279.473 1652.78 278.5 z"/>
<path transform="translate(0,0)" fill="rgb(180,248,252)" d="M 1585.29 244.498 C 1592.8 243.009 1599.35 245.82 1606.13 248.79 C 1613.67 252.092 1638.22 264.32 1641.2 271.982 C 1637.35 274.781 1632.93 276.57 1628.61 278.502 C 1626.37 278.976 1619.4 272.539 1617.14 270.862 C 1603.99 261.094 1587.74 252.173 1571.93 247.728 C 1576.48 246.915 1580.85 245.772 1585.29 244.498 z"/>
<path transform="translate(0,0)" fill="rgb(180,248,252)" d="M 1708.49 780.497 C 1715.53 780.089 1736.09 793.312 1744.17 796.245 C 1759.3 801.742 1774.69 803.898 1790.64 805.254 C 1790.61 805.586 1790.63 805.924 1790.57 806.25 C 1789.99 809.086 1787.39 811.294 1785.32 813.081 C 1785.24 814.213 1785.41 813.994 1784.95 814.794 C 1784.14 816.189 1783.82 816.664 1782.13 817.037 C 1766.01 820.595 1727.84 802.202 1714.49 793.28 C 1707.88 788.862 1710.02 787.855 1708.62 781.102 C 1708.58 780.9 1708.54 780.698 1708.49 780.497 z"/>
<path transform="translate(0,0)" fill="rgb(180,248,252)" d="M 1549.34 253.499 C 1559.16 251.744 1567.58 253.369 1576.85 256.837 C 1585.98 260.249 1616.81 275.344 1620.83 284.166 C 1618.27 287.649 1613.51 289.165 1609.67 290.847 C 1607.2 285.737 1604.5 283.768 1599.4 281.5 C 1596.25 277.635 1587.74 273.232 1583.27 270.748 C 1560.45 258.061 1548.11 268.059 1526.68 273.833 L 1525.78 274.071 C 1534.8 265.363 1537.34 259.784 1549.34 253.499 z"/>
<path transform="translate(0,0)" fill="rgb(180,248,252)" d="M 1608.01 612.497 C 1615.27 611.529 1633.45 619.305 1641.53 621.177 C 1656.02 624.53 1671.38 625.379 1686.2 626.085 C 1687.83 627.93 1690.63 632.715 1690.95 635.113 C 1691.17 636.764 1690.62 637.089 1689.61 638.208 L 1685.25 638.39 C 1661.35 641.059 1626.35 631.355 1603.02 624.705 C 1603.1 624.623 1603.18 624.545 1603.26 624.459 C 1605.98 621.46 1608.13 616.559 1608.01 612.497 z"/>
<path transform="translate(0,0)" fill="rgb(180,248,252)" d="M 1554.17 568.498 C 1559.25 568.273 1564.88 569.726 1569.97 570.239 C 1584.32 571.684 1599.9 571.267 1613.93 567.768 C 1614.17 568.541 1614.32 569.26 1614.41 570.071 C 1614.92 574.962 1610.51 587.738 1607.18 591.507 C 1607.31 592.274 1607.39 592.622 1607.42 593.345 C 1607.56 596.541 1606.11 598.544 1604.08 600.836 C 1591.75 592.15 1563.1 586.308 1554.4 574.164 C 1553.01 572.233 1553.8 570.669 1554.17 568.498 z"/>
<path transform="translate(0,0)" fill="rgb(180,248,252)" d="M 1586.95 848.499 C 1590.52 848.075 1594.21 847.89 1597.21 850.281 C 1598.78 851.531 1598.68 852.159 1598.94 854.025 C 1596.73 855.884 1591.21 854.863 1588.05 855.514 C 1584.83 856.18 1581.68 857.481 1578.7 858.862 C 1564.77 865.316 1551.81 876.354 1539.74 885.804 C 1526.49 896.17 1478.05 931.715 1471.28 942.048 C 1468.39 946.466 1468.13 952.388 1467.51 957.512 L 1469.07 959.929 L 1467.67 959.883 C 1465.01 957.358 1462.68 954.231 1461.57 950.683 C 1460.64 947.726 1460.59 945.738 1462.12 942.966 C 1464.29 939.06 1467.61 935.548 1470.89 932.56 C 1484.6 920.083 1500.2 908.982 1514.61 897.264 C 1530.7 884.189 1547.02 868.678 1564.59 857.773 C 1571.55 853.455 1579.18 850.908 1586.95 848.499 z"/>
<path transform="translate(0,0)" fill="rgb(180,248,252)" d="M 1717.16 392.499 C 1727.89 391.402 1740.04 392.682 1749.71 397.681 C 1754.14 399.976 1761.5 405.127 1762.94 410.173 C 1763.15 410.9 1762.71 411.234 1762.36 411.86 C 1755.09 407.106 1748.3 403.832 1739.64 402.498 C 1708.13 397.648 1689.91 412.574 1666.41 429.585 C 1663.79 435.685 1659.1 440.869 1656.31 447.089 C 1653.93 452.382 1655.06 458.817 1655.45 464.469 C 1655.48 464.415 1655.12 462.302 1655.1 462.215 L 1654.68 463.37 L 1653.52 462.744 C 1651.76 459.971 1649.08 456.382 1648.43 453.166 C 1646.72 444.68 1652.85 432.073 1657.73 425.373 C 1671.51 406.495 1694.68 396.164 1717.16 392.499 z"/>
<path transform="translate(0,0)" fill="rgb(180,248,252)" d="M 1652.18 921.498 C 1658.12 923.005 1667.45 935.025 1672.3 939.641 C 1682 948.883 1695.03 956.159 1706.91 962.259 C 1730.14 974.192 1756.35 983.294 1781.96 988.387 C 1792.48 990.478 1804.88 991.215 1815.05 994.238 C 1817.34 994.92 1817.93 995.28 1819.04 997.33 C 1818.06 999.937 1817.83 999.759 1815.26 1000.94 C 1796.37 1004.23 1742.24 985.81 1723.64 978.029 C 1707.61 971.323 1655.61 944.258 1650.41 927.367 C 1649.64 924.859 1650.95 923.507 1652.18 921.498 z"/>
<path transform="translate(0,0)" fill="rgb(180,248,252)" d="M 1380.92 950.482 C 1383.15 950.233 1383.58 949.987 1385.61 951.113 C 1405 996.734 1466.32 1020.78 1511.27 1030.05 C 1518.45 1031.53 1540.9 1031.04 1545.42 1035.52 L 1545.21 1037.82 L 1542.31 1039.73 C 1521.23 1044.66 1484.9 1032.09 1465.41 1024.41 C 1438.45 1013.78 1393.76 988.5 1381.88 960.479 C 1380.37 956.928 1379.42 954.278 1380.92 950.482 z"/>
<path transform="translate(0,0)" fill="rgb(180,248,252)" d="M 1827.63 782.5 C 1831.19 782.332 1835.84 781.995 1839.1 783.739 C 1841.69 785.124 1841.86 785.988 1842.55 788.629 C 1835.51 791.694 1826.59 790.044 1820.62 796.056 C 1818.44 798.253 1816.33 800.447 1814.32 802.807 C 1799.82 819.87 1786.02 845.637 1773.27 864.834 C 1766.26 875.386 1751.51 893.364 1747 904.209 C 1745.17 908.624 1745.96 913.631 1746.35 918.281 L 1748.35 920.16 L 1747.54 920.522 C 1746.05 919.99 1744.57 919.449 1743.13 918.788 C 1740.33 917.499 1737.74 915.352 1736.84 912.303 C 1735.43 907.539 1738.03 901.775 1740.48 897.765 C 1750.86 880.77 1763.03 864.362 1774.04 847.697 C 1784.57 831.738 1801.48 802.032 1814.18 789.376 C 1818.21 785.363 1822.19 783.844 1827.63 782.5 z"/>
<path transform="translate(0,0)" fill="rgb(180,248,252)" d="M 1731.04 592.499 C 1736.35 592.802 1744.31 597.251 1748.06 600.863 C 1748.24 601.041 1748.43 601.213 1748.61 601.398 C 1751.93 604.86 1753.28 615.022 1753.09 619.648 C 1752.82 626.435 1750.16 633.423 1745.02 638.014 C 1740.64 641.933 1736.81 642.163 1731.2 641.886 C 1723.3 638.567 1716.77 633.864 1713.02 625.902 C 1710.61 620.804 1710.3 615.162 1712.21 609.853 C 1715.23 601.425 1723.36 596.191 1731.04 592.499 z"/>
<path transform="translate(0,0)" fill="rgb(180,248,252)" d="M 1789.93 404.497 C 1790.2 404.462 1790.47 404.412 1790.75 404.39 C 1795 404.047 1806.86 411.179 1810.08 414.119 C 1813.72 420.781 1812.01 434.047 1811.24 441.551 C 1809.88 454.891 1804.07 485.366 1793.32 494.129 C 1793.29 496.851 1791.68 498.54 1790.14 500.641 L 1788.23 500.89 C 1783.26 497.088 1782.4 487.263 1780.13 481.564 C 1786.5 475.895 1790.01 458.605 1791.52 450.344 C 1793.37 440.185 1795.85 413.119 1789.93 404.497 z"/>
<path transform="translate(0,0)" fill="rgb(180,248,252)" d="M 1498.4 985.498 C 1503.34 984.87 1508.48 984.987 1513.46 984.849 C 1515.72 986.117 1517.11 987.753 1518.74 989.729 C 1524.35 996.556 1538.92 1015.71 1538.1 1024.62 C 1530.74 1024.56 1523.49 1023.39 1516.22 1022.37 C 1501.49 1019.15 1487.18 1015.13 1472.85 1010.4 C 1474.77 1008.61 1475.57 1006.21 1476.78 1003.93 C 1482.36 993.391 1487.71 989.733 1498.4 985.498 z"/>
<path transform="translate(0,0)" fill="rgb(180,248,252)" d="M 1716.26 304.241 C 1719.73 304.289 1722.55 305.464 1725.64 306.938 C 1745.26 316.295 1770.12 336.095 1788.62 348.688 C 1811.62 364.343 1836.63 379.04 1858.44 396.252 C 1860.67 398.008 1861.31 398.89 1862.24 401.535 C 1861.42 404.276 1861.05 404.602 1858.87 406.501 L 1857.27 408.391 C 1855.25 408.999 1853.89 408.913 1851.93 408.102 C 1838.41 402.525 1786.32 364.687 1775.16 354.62 C 1770.72 350.616 1768.17 343.777 1764.57 338.936 C 1753.24 323.701 1733.71 311.111 1716.26 304.241 z"/>
<path transform="translate(0,0)" fill="rgb(180,248,252)" d="M 1773.54 942.499 C 1775.55 942.249 1777.67 942.065 1779.68 942.404 C 1786.6 943.572 1793.46 952.004 1797.49 957.291 C 1801.86 963.046 1813.14 978.238 1812.17 985.483 C 1803.89 983.794 1795.49 982.491 1787.17 981.009 C 1778.38 977.387 1753.58 971.526 1743.14 968.897 C 1745.68 966.625 1747.09 963.664 1748.82 960.789 C 1755.32 950.003 1761.76 945.945 1773.54 942.499 z"/>
<path transform="translate(0,0)" fill="rgb(180,248,252)" d="M 1912.72 164.499 C 1913.6 164.471 1914.47 164.472 1915.35 164.531 C 1918.33 164.73 1920.94 166.255 1922.78 168.444 C 1923.11 170.584 1922.87 171.798 1921.79 173.701 C 1914.92 185.81 1818.39 236.947 1803.2 241.179 C 1801.08 236.306 1798.07 232.251 1793.8 229.075 C 1804.8 225.917 1816.16 218.905 1826.41 213.667 C 1847.91 202.687 1869.75 191.795 1890.46 179.409 C 1898 174.906 1904.82 168.047 1912.72 164.499 z"/>
<path transform="translate(0,0)" fill="rgb(180,248,252)" d="M 1693.21 539.499 C 1694.36 539.73 1695.4 539.96 1696.16 540.929 C 1699.78 545.577 1714.86 572.419 1714.8 577.16 C 1712.08 581.073 1700.7 586.798 1696.3 589.595 A 2988.77 2988.77 0 0 0 1663.17 579.867 C 1658.24 575.409 1637.39 567.347 1630.15 564.703 C 1649.8 560.469 1677.1 551.785 1693.21 539.499 z"/>
<path transform="translate(0,0)" fill="rgb(180,248,252)" d="M 1622.34 570.499 C 1630.41 571.824 1649.72 582.986 1658.67 586.533 C 1669.39 590.781 1680.46 593.494 1691.33 597.242 C 1691.39 601.555 1686.95 613.871 1684.29 617.016 L 1679.75 617.192 C 1656.08 617.175 1632.89 609.841 1610.41 603.203 C 1615.14 598.993 1620.17 577.754 1622.34 570.499 z"/>
<path transform="translate(0,0)" fill="rgb(180,248,252)" d="M 1833.4 798.499 C 1836.18 798.156 1838.06 797.399 1840.57 798.795 C 1840.64 799.255 1840.69 799.477 1840.7 799.976 C 1840.74 801.881 1840.02 803.563 1839.16 805.217 C 1836.3 810.712 1832.15 815.71 1828.94 821.047 C 1818.12 839.065 1781.12 903.203 1768.47 915.232 C 1766.07 917.509 1762.93 917.143 1759.83 917.127 C 1758.41 916.892 1756.59 915.796 1755.6 914.762 C 1753.73 912.818 1753.89 911.201 1753.88 908.72 C 1757.79 900.777 1763.52 893.49 1768.46 886.143 L 1790.7 852.571 C 1799.21 839.706 1811.54 817.725 1821.08 806.627 C 1824.53 802.617 1828.65 800.67 1833.4 798.499 z"/>
<path transform="translate(0,0)" fill="rgb(180,248,252)" d="M 1772.72 685.499 C 1774.99 685.155 1778.21 684.394 1780.45 684.934 C 1785.89 686.246 1793.39 691.676 1796.08 696.63 C 1763.99 702.822 1733.75 719.337 1714.53 746.303 C 1709.51 753.347 1707.15 762.331 1701.75 768.998 C 1701.61 769.168 1701.47 769.331 1701.32 769.498 C 1701.6 771.134 1701.33 772.633 1701.15 774.27 L 1699.44 775.465 C 1694.65 775.092 1689.1 771.251 1684.49 769.478 C 1686.95 765.122 1687.63 758.819 1688.92 753.929 C 1690.87 746.559 1693.88 740.294 1697.88 733.837 C 1715.35 705.666 1741.4 692.887 1772.72 685.499 z"/>
<path transform="translate(0,0)" fill="rgb(180,248,252)" d="M 1678.38 515.498 C 1679.64 515.655 1680.69 515.991 1681.89 516.37 C 1684.94 520.111 1689.48 526.64 1689.27 531.55 C 1688.83 532.075 1688.38 532.564 1687.88 533.03 C 1683.36 537.244 1674.14 540.735 1668.32 543.115 C 1635.59 556.515 1601.6 563.445 1566.23 561.757 C 1563.2 560.757 1559.19 560.76 1555.97 560.408 C 1556.33 559.855 1556.69 559.307 1557 558.729 C 1559.48 554.164 1563.63 543.985 1562.21 538.838 C 1595.11 540.996 1624.78 534.688 1655.93 524.549 C 1663.1 522.215 1672.2 519.862 1678.38 515.498 z"/>
<path transform="translate(0,0)" fill="rgb(180,248,252)" d="M 1587.33 863.498 C 1590.6 863.024 1593.32 862.495 1596.49 863.785 C 1598.09 865.538 1598.95 866.367 1598.71 868.954 C 1598.07 875.872 1589.55 883.614 1584.68 888.085 C 1567.52 903.809 1548.26 917.959 1530.14 932.566 C 1518.42 942.009 1505.92 954.172 1492.92 961.684 C 1490.54 963.056 1488.43 963.174 1485.74 963.06 C 1484.94 962.905 1484.15 962.743 1483.37 962.492 C 1480.81 961.664 1478.95 959.686 1477.85 957.266 C 1476.68 954.703 1476.63 951.667 1477.6 949.038 C 1481.71 938.005 1573.02 870.738 1587.33 863.498 z"/>
<path transform="translate(0,0)" fill="rgb(93,233,231)" d="M 1902.43 209.499 L 1904.53 209.758 C 1906.43 210.733 1907.18 211.955 1908.1 213.813 C 1922.82 243.671 1923.04 283.63 1912.44 314.632 C 1905.1 336.115 1885.67 370.65 1864.33 380.355 C 1860.99 381.877 1859.57 380.779 1856.44 379.512 C 1854.95 377.381 1852.55 376.378 1850.32 375.149 C 1851.77 374.081 1853.13 372.92 1854.47 371.72 C 1879.93 348.876 1898.29 313.256 1899.94 278.942 C 1900.73 262.549 1897.2 231.356 1885.8 218.801 C 1890.91 216.733 1898.6 213.456 1902.43 209.499 z"/>
<path transform="translate(0,0)" fill="rgb(180,248,252)" d="M 1667.36 305.499 C 1671.39 305.185 1675.46 304.943 1679.51 304.888 C 1704.55 304.549 1730.44 315.214 1748.22 332.793 C 1771.58 355.896 1784.79 397.086 1784.88 429.389 C 1784.9 439.896 1784.13 458.727 1776.52 466.4 C 1776.76 465.684 1776.96 464.969 1777.07 464.218 C 1777.79 459.499 1772.25 438.133 1769.6 434.516 C 1771.03 430.975 1770.84 413.254 1769.73 409.122 C 1768.35 403.998 1765.55 399.293 1763.75 394.302 C 1754.78 369.407 1745.36 344.91 1721.22 330.712 C 1702.92 319.952 1679.77 317.094 1659.24 322.241 C 1651.26 324.242 1643.71 327.572 1635.78 329.555 L 1635.08 329.723 C 1637.19 325.124 1638.76 319.303 1637.12 314.367 C 1647.06 310.559 1656.92 307.616 1667.36 305.499 z"/>
<path transform="translate(0,0)" fill="rgb(180,248,252)" d="M 1691.26 340.5 C 1696.93 340.192 1702.46 340.208 1708.02 341.521 C 1723.8 345.248 1737.3 356.729 1745.62 370.437 C 1748.26 374.781 1753.04 385.092 1751.72 390.262 C 1749.59 388.371 1745.47 387.175 1742.77 386.306 C 1719.46 378.813 1695.25 388.025 1674.52 398.499 C 1669.73 404.116 1662.31 407.361 1657.36 412.895 C 1652.07 418.815 1648.83 426.955 1642.71 432.067 C 1644.17 426.836 1642.47 419.158 1642.11 413.712 C 1640.95 396.287 1645.75 376.25 1655.7 361.756 C 1664.4 349.087 1676.6 343.284 1691.26 340.5 z"/>
<path transform="translate(0,0)" fill="rgb(180,248,252)" d="M 1622.45 291.498 L 1624.92 291.89 C 1625.67 292.553 1626.26 293.093 1626.77 293.971 C 1632.17 303.292 1630.28 319.377 1627.47 329.059 C 1622.54 346.035 1615.64 362.767 1609.77 379.462 L 1574.4 481.704 A 5017.34 5017.34 0 0 0 1553.75 543.509 C 1549.79 555.989 1546.8 570.094 1541.16 581.896 C 1537.84 588.871 1531.23 594.982 1524.49 598.592 C 1508.64 607.076 1494.38 599.328 1479.05 594.496 L 1477.01 592.335 C 1476.77 588.157 1479.22 584.117 1479.74 579.874 C 1479.77 579.626 1479.79 579.377 1479.82 579.129 C 1488.44 580.883 1495.95 586.877 1504.96 587.659 C 1511.06 588.189 1517.9 586.142 1522.57 582.143 C 1526.67 578.623 1529.5 574.635 1531.56 569.64 C 1542.49 543.057 1549.5 514.401 1558.88 487.179 C 1568.47 459.321 1577.99 431.353 1587.98 403.64 C 1595.49 382.833 1615.34 336.346 1616.65 316.759 C 1617.08 310.387 1616.29 302.407 1611.97 297.402 C 1615.45 296.129 1619.99 294.308 1622.45 291.498 z"/>
<path transform="translate(0,0)" fill="rgb(180,248,252)" d="M 1758.18 224.5 C 1767.88 223.994 1777.2 226.269 1784.95 232.323 C 1794.34 239.667 1800.18 251.498 1801.37 263.259 A 40.4763 40.4763 0 0 1 1792.19 293.512 C 1784.23 302.975 1773.98 306.884 1761.93 307.892 A 40.2209 40.2209 0 0 1 1738.1 300.727 C 1728.76 294.179 1722.69 283.646 1720.83 272.468 A 41.3277 41.3277 0 0 1 1728.21 241.083 C 1735.64 230.94 1746.03 226.298 1758.18 224.5 z"/>
<path transform="translate(0,0)" fill="rgb(17,24,45)" d="M 1751.83 230.499 C 1761.51 229.467 1769.97 229.931 1778.28 235.564 A 32.9148 32.9148 0 0 1 1792.17 257.381 A 32.6168 32.6168 0 0 1 1786.6 281.888 C 1781.48 288.984 1773.86 293.094 1765.36 294.501 C 1760.24 296.207 1751.77 295.02 1746.8 293.081 C 1739.17 290.1 1733.43 282.998 1730.4 275.574 C 1726.88 266.961 1726.68 257.14 1730.47 248.579 C 1734.9 238.576 1742.07 234.229 1751.83 230.499 z"/>
<path transform="translate(0,0)" fill="rgb(93,233,231)" d="M 1739.88 245.028 C 1742.37 243.084 1745.02 240.976 1747.88 239.621 C 1753.97 236.742 1763.14 235.764 1769.55 238.243 C 1772.25 239.289 1774.73 241.182 1775.89 243.786 C 1780.4 246.038 1783.51 250.848 1785.14 255.529 C 1787.18 261.37 1786.03 267.816 1783.27 273.237 C 1779.95 279.778 1774.25 284.873 1767.24 287.125 C 1759.91 289.48 1753.57 287.976 1746.66 285.042 C 1741.32 280.697 1737.05 276.129 1735.13 269.336 C 1732.67 260.667 1735.77 252.557 1739.88 245.028 z"/>
<path transform="translate(0,0)" fill="rgb(17,24,45)" d="M 1742.82 247.965 C 1749.68 243.743 1757.29 239.444 1765.69 241.579 C 1768.73 242.352 1772.07 244.215 1773.65 246.966 C 1777.84 250.04 1780.61 255.295 1781.45 260.403 C 1782.22 265.063 1780.51 269.617 1777.79 273.349 C 1774.47 277.912 1768.73 281.819 1763.09 282.702 C 1758.94 283.352 1754.75 282.605 1750.65 281.931 C 1748.64 278.718 1742.95 274.235 1739.71 268.874 C 1736.84 264.107 1741.52 253.482 1742.68 248.551 L 1742.82 247.965 z"/>
<path transform="translate(0,0)" fill="rgb(180,248,252)" d="M 1753.18 248.499 C 1756.87 247.805 1760.52 247.122 1764.18 248.475 C 1768.11 249.932 1771.47 253.777 1772.92 257.664 C 1774.27 261.301 1774.16 265.24 1772.46 268.736 C 1770.69 272.392 1768.17 274.436 1764.32 275.693 C 1763.06 276.265 1761.79 276.728 1760.39 276.78 C 1756.85 276.911 1752.98 276.331 1750.37 273.731 C 1747.23 270.601 1746.31 265.65 1746.36 261.369 C 1746.43 255.531 1749.17 252.335 1753.18 248.499 z"/>
<path transform="translate(0,0)" fill="rgb(180,248,252)" d="M 1501.95 389.495 C 1503.16 389.277 1504.31 389.098 1505.54 389.304 C 1511.48 390.301 1518.24 395.252 1521.72 400.092 C 1525.1 404.795 1526.26 409.858 1525.28 415.556 C 1522 434.486 1510.39 463.678 1504.2 482.893 L 1483.54 546.076 C 1479.13 559.714 1475.25 574.045 1469.73 587.248 C 1469.21 588.501 1468.38 589.308 1467.3 590.075 C 1459.58 585.067 1451.3 579.325 1442.79 575.845 C 1443.54 575.161 1444.21 574.435 1444.77 573.581 C 1449.03 567.055 1459.4 527.977 1462.67 517.592 C 1475.68 476.263 1490.25 434.982 1501.92 393.282 C 1502.29 391.965 1502.23 390.812 1501.95 389.495 z"/>
<path transform="translate(0,0)" fill="rgb(180,248,252)" d="M 1889.17 611.499 C 1894.87 610.525 1901.26 611.093 1906.82 612.589 C 1922.7 616.869 1956.62 647.801 1964.53 662.456 C 1965.88 664.947 1967.39 668.196 1966.56 671.012 L 1964.54 671.462 C 1953.36 668.014 1942.13 656.476 1932.42 649.827 C 1930.32 649.962 1930.43 650.006 1928.95 651.53 L 1928.99 653.54 C 1933.61 662.048 1949.87 670.17 1957.8 675.92 C 1960.51 677.882 1962.2 679.342 1962.74 682.669 C 1961.84 685.393 1961.14 686.999 1958.93 688.873 C 1944.52 694.174 1929.52 673.58 1918 671.405 C 1915.39 672.499 1915.37 672.982 1913.97 675.498 C 1919.43 678.422 1924.14 682.72 1929.37 686.034 C 1933.73 688.789 1938.81 690.43 1942.96 693.487 C 1943.97 694.238 1944.44 695.095 1944.98 696.205 C 1936.2 707.809 1909.06 682.75 1899.71 685.368 L 1898.99 687.138 C 1903.63 694.989 1915.28 695.816 1921.08 702.153 C 1921.2 702.281 1921.3 702.416 1921.42 702.547 C 1904.4 700.856 1881.57 698.378 1870.78 683.855 C 1866.18 677.678 1860.78 670.706 1854.1 666.639 C 1853.89 666.508 1853.67 666.387 1853.45 666.26 C 1861.72 662.644 1869.35 655.313 1875.03 648.332 C 1882.64 638.984 1890.47 624.06 1889.17 611.499 z"/>
<path transform="translate(0,0)" fill="rgb(180,248,252)" d="M 1796.49 705.499 C 1802.71 704.509 1805.05 706.229 1810.27 709.436 C 1819.69 715.218 1832.01 723.67 1834.57 735.008 C 1835.97 741.252 1836.41 767.51 1833.15 772.65 C 1820.31 774.379 1812.07 777.374 1803.61 787.59 C 1801.2 790.493 1799.17 793.69 1796.25 796.12 C 1796.1 796.245 1795.95 796.364 1795.79 796.486 C 1781.29 796.183 1768.32 794.335 1754.19 791.078 C 1750.29 788.58 1744.08 786.887 1739.74 784.906 C 1729.94 780.432 1720.45 775.55 1711.01 770.363 C 1714.75 767.327 1718.6 756.606 1721.39 752.041 C 1737.6 725.481 1767.62 712.476 1796.49 705.499 z"/>
<path transform="translate(0,0)" fill="rgb(180,248,252)" d="M 1792.9 527.498 L 1795.91 528.149 C 1805.66 536.829 1860.32 591.248 1865.13 599.774 C 1867.16 605.985 1864.33 615.068 1861.68 620.749 C 1856.21 632.497 1845.82 643.707 1833.48 648.219 C 1829.7 643.215 1817.1 636.497 1811.23 633.974 C 1808.66 629.009 1736.69 584.249 1724.77 575.863 A 88.9736 88.9736 0 0 0 1767.9 559.12 C 1776.91 552.468 1791.18 538.832 1792.9 527.498 z"/>
<path transform="translate(0,0)" fill="rgb(180,248,252)" d="M 1715.69 806.498 C 1722.18 805.845 1739.51 816.774 1747.05 819.248 C 1756.45 822.334 1766.66 824.347 1776.45 825.814 C 1775.36 841.07 1724.71 890.499 1728.09 911.966 C 1728.94 917.353 1732.17 922.344 1736.56 925.541 C 1745.78 932.255 1757.82 929.876 1768.23 928.16 C 1770.65 929.666 1772.85 930.782 1774.07 933.511 C 1766.19 937.732 1757.74 939.671 1749.78 944.499 C 1749.69 944.773 1737.12 964.729 1736.17 965.931 C 1720.17 957.592 1703.59 951.966 1688.7 941.274 C 1679.13 934.396 1671.37 924.604 1661.55 918.405 C 1661.82 918.241 1662.09 918.084 1662.36 917.912 C 1677.98 907.756 1694.85 853.594 1702.93 834.76 C 1706.63 826.136 1713.72 815.074 1715.69 806.498 z"/>
<path transform="translate(0,0)" fill="rgb(180,248,252)" d="M 1471.46 834.498 C 1476.3 835.944 1481.26 846.196 1484.52 850.28 C 1491.23 858.702 1501.38 865.76 1510.22 871.75 C 1513.9 874.237 1518.56 876.546 1521.53 879.821 C 1517.67 888.812 1462.73 921.947 1454.46 938.297 C 1451.89 943.364 1451.16 949.006 1453.02 954.426 C 1455.42 961.452 1461.46 967.037 1468.1 970.087 C 1478.45 974.847 1488.42 973.07 1498.72 969.354 L 1499.15 969.441 C 1501.33 971.495 1503.69 973.302 1504.7 976.198 C 1494.92 978.342 1486.83 981.942 1478.01 986.5 C 1477.35 988.002 1466.21 1006.63 1465.23 1007.73 C 1457.79 1001.45 1445.33 998.13 1436.74 993.04 C 1423.87 985.419 1409.41 972.882 1400.49 960.718 C 1397.35 956.445 1395.6 950.882 1392.14 946.971 C 1392.03 946.856 1391.93 946.745 1391.82 946.633 C 1404.44 938.458 1465.35 848.836 1471.46 834.498 z"/>
<path transform="translate(0,0)" fill="rgb(180,248,252)" d="M 1665.33 329.499 C 1675.21 328.381 1685.73 327.973 1695.42 330.449 C 1689.42 331.652 1683.26 332.604 1677.5 334.721 C 1661.26 340.69 1649.52 352.536 1642.28 368.091 C 1629.34 395.898 1631.36 418.314 1639.4 446.871 C 1640.84 451.962 1641.41 457.443 1643.31 462.381 C 1646.68 471.167 1654.65 476.287 1662.98 479.939 C 1666.89 485.531 1676.71 500.616 1676.03 507.263 C 1665.86 513.7 1642.66 520.276 1630.81 522.497 C 1615.05 530.287 1582.82 531.267 1565.44 530.19 C 1565.8 529.876 1566.04 529.705 1566.33 529.35 C 1569.71 525.219 1610.58 401.949 1615.38 388.167 C 1618.02 380.597 1631.25 347.834 1630.39 341.706 C 1642.33 338.316 1652.85 332.24 1665.33 329.499 z"/>
<path transform="translate(0,0)" fill="rgb(93,233,231)" d="M 1877.2 223.499 C 1878.45 223.241 1879.17 223.027 1880.44 223.353 C 1881.73 223.686 1882.66 225.5 1883.34 226.629 C 1894.7 245.484 1895.1 280.664 1889.71 301.688 C 1884.06 323.721 1864.2 360.187 1844.37 371.968 C 1841.2 366.163 1814.69 348.621 1807.72 345.501 C 1806.14 342.647 1771.61 318.672 1766.44 315.916 A 53.9124 53.9124 0 0 0 1779.32 312.407 A 53.3491 53.3491 0 0 0 1807.77 283.167 C 1810.49 276.388 1812.51 265.733 1809.52 258.819 C 1818.25 256.785 1869.68 229.378 1877.2 223.499 z"/>
<path transform="translate(0,0)" fill="rgb(180,248,252)" d="M 1725.66 410.5 A 66.6063 66.6063 0 0 1 1743.02 411.673 C 1747.86 412.671 1754.08 414.79 1756.89 419.108 C 1757.01 419.227 1757.14 419.337 1757.25 419.466 C 1761.2 424.097 1777.1 499.08 1776.27 506.188 C 1776.33 506.542 1776.44 507.074 1776.43 507.46 C 1776.01 515.905 1765.42 527.598 1759.38 533.201 C 1746.05 545.565 1730.23 551.061 1712.18 550.343 C 1709.03 547.379 1664.48 463.023 1663.5 457.067 C 1662.51 451.016 1665.07 445.423 1668.66 440.696 C 1682.01 423.11 1704.36 413.536 1725.66 410.5 z"/>
<path transform="translate(0,0)" fill="rgb(180,248,252)" d="M 1550.59 272.499 C 1555.45 271.717 1560.2 271.207 1565.07 272.276 C 1578.45 275.211 1596.41 284.585 1603.69 296.417 C 1608.56 304.321 1610.3 313.681 1608.16 322.713 C 1604.94 336.313 1599.11 350.046 1594.43 363.244 L 1565.46 444.539 A 4679.27 4679.27 0 0 0 1538.78 523.801 C 1534.31 537.363 1530.5 551.944 1524.88 565.049 C 1522.77 569.972 1520.38 574.054 1515.67 576.855 C 1505.22 583.068 1492.96 574.851 1482.56 572.365 L 1481.53 572.124 C 1482.29 571.352 1483.06 570.58 1483.66 569.664 C 1487.9 563.127 1496.31 531.685 1499.42 522.165 C 1509.89 490.132 1523.27 455.215 1531.76 422.997 C 1533.18 417.63 1534.86 411.979 1533.79 406.425 C 1530.8 390.966 1518.35 389.293 1507.52 381.197 C 1498.27 374.29 1512.33 356.157 1511.17 346.6 C 1514.94 348.961 1517.79 352.337 1519.37 356.502 C 1530.2 364.787 1546.04 375.155 1560.34 373.854 C 1567.9 373.166 1573.29 368.256 1577.83 362.554 C 1587.52 350.381 1597.66 330.644 1595.57 314.817 C 1594.44 306.23 1589.64 298.882 1582.82 293.669 C 1575.58 288.136 1566.38 285.003 1557.26 286.361 C 1548.37 287.682 1539.51 293.034 1534.25 300.335 C 1529.07 307.529 1527.45 316.721 1528.96 325.374 C 1530.02 331.389 1532.18 337.543 1537.41 341.148 C 1541.57 344.018 1547.04 344.438 1551.88 343.399 C 1561.44 341.346 1569.47 334.426 1574.52 326.269 C 1577.19 321.976 1579.52 317.601 1578.28 312.438 C 1576.92 310.139 1575.65 308.879 1573.03 308.1 C 1563.84 305.364 1550.02 310.558 1543.51 317.16 C 1541.16 319.534 1539.12 323.342 1536.24 324.887 C 1534.9 321.901 1536.19 316.993 1536.95 313.923 C 1538.77 306.665 1542.73 300.78 1549.26 296.941 C 1555.13 293.489 1562.12 292.283 1568.73 294.125 C 1575.46 296.005 1581.63 300.826 1584.94 307.008 C 1589.21 315.006 1588.5 324.155 1585.78 332.524 C 1581.82 344.651 1571.91 361.214 1560.37 367.136 C 1553.4 365.349 1546.19 363.691 1539.5 360.991 C 1529.05 356.769 1520.39 346.885 1516.08 336.634 C 1511.46 325.646 1511.21 312.694 1515.81 301.657 C 1522.36 285.957 1535.73 278.693 1550.59 272.499 z"/>
<path transform="translate(0,0)" fill="rgb(180,248,252)" d="M 1538.67 699.499 C 1542.34 700.224 1547.83 707.746 1550.51 710.552 C 1560.06 720.579 1571.15 729.982 1582.83 737.441 C 1597.64 746.893 1614.68 754.53 1630.87 761.426 C 1638.13 764.515 1647.69 766.973 1654.11 771.38 C 1654.98 777.4 1643.92 797.764 1640.88 803.616 C 1636.82 811.429 1615.74 847.97 1608.28 850.337 C 1607.88 849.604 1607.47 848.879 1607.01 848.177 C 1604 843.546 1600.64 841.576 1595.23 840.539 L 1594.21 840.349 C 1573.39 837.167 1560.14 853.506 1543.71 861.857 C 1543.49 861.968 1543.27 862.073 1543.05 862.181 C 1541.09 859.228 1517.81 845.696 1511.29 838.713 C 1500.62 827.3 1496.32 810.33 1489.69 803.044 C 1502.35 791.91 1533.52 718.155 1538.67 699.499 z"/>
<path transform="translate(0,0)" fill="rgb(180,248,252)" d="M 1544.23 604.498 C 1550.91 605.283 1561.84 616.368 1568.22 619.892 C 1603.2 639.213 1657.43 649.891 1697.12 645.888 C 1697.81 646.254 1698.33 646.574 1698.96 647.018 C 1712.43 656.557 1721.65 659.464 1737.85 656.686 C 1744.64 659.37 1764.24 671.842 1767.62 677.341 C 1761.95 680.421 1753.01 681.756 1746.69 684.109 C 1719.95 694.057 1703.29 709.42 1687.95 733.19 C 1683.39 740.263 1680.71 756.012 1677.51 760.181 C 1677.41 760.303 1677.31 760.417 1677.21 760.536 C 1669.94 754.536 1659.37 750.166 1651 745.733 C 1633.15 736.279 1614.93 727.112 1597.68 716.59 C 1586.53 709.783 1578.04 700.05 1568.02 691.912 L 1567.43 691.443 C 1565.94 685.01 1554.02 672.114 1551.5 659.164 C 1550.18 652.449 1552.06 646.273 1551.46 639.662 C 1551.37 638.621 1550.9 638.591 1550.13 637.961 C 1549.5 638.351 1549.19 638.488 1548.7 638.976 C 1546.06 641.567 1545.15 647.473 1544.92 650.988 C 1541.67 700.466 1608.53 732.833 1644.29 751.888 C 1652.18 756.094 1665.26 761.316 1671.12 767.972 C 1659.7 762.712 1647.12 759.276 1635.49 754.261 C 1599.77 738.865 1554.27 716.586 1539.1 678.156 C 1528.84 652.146 1533.36 629.374 1544.23 604.498 z"/>
<path transform="translate(0,0)" fill="rgb(180,248,252)" d="M 1767.68 112.499 A 135.753 135.753 0 0 1 1850.79 131.691 C 1860.86 137.719 1889.31 158.537 1891.95 169.052 C 1888.78 175.261 1800.68 219.701 1788.01 224.544 C 1786.08 221.64 1780.44 219.146 1777.2 217.949 C 1762.12 212.374 1747.24 216.985 1733.42 223.447 C 1729.89 229.931 1718.95 234.724 1713.75 247.978 C 1710.33 256.703 1713.04 266.645 1709.78 274.719 C 1709.7 274.905 1709.62 275.085 1709.54 275.269 C 1699.01 268.839 1666.19 270.685 1653.44 271.109 C 1655.73 265.412 1653.45 254.086 1653.09 247.719 C 1651.38 217.485 1661.02 187.81 1678.93 163.425 C 1700.71 133.756 1731.89 118.076 1767.68 112.499 z"/>
<path transform="translate(0,0)" fill="rgb(17,24,45)" d="M 1771.05 121.499 C 1779.66 121.022 1798.46 119.347 1805.61 124.4 L 1805.95 126.524 C 1800.14 131.823 1781.58 127.39 1773.65 128.11 C 1740.23 131.144 1710.21 147.384 1690.26 174.469 C 1685.12 181.447 1682.36 190.76 1676.7 197.179 C 1676.57 197.332 1676.43 197.478 1676.29 197.627 C 1676.83 201.871 1672.38 215.714 1669.82 219.078 C 1668.51 220.804 1668.13 220.724 1666 220.946 C 1665.09 220.056 1664.76 220.054 1664.57 218.704 C 1662.93 207.338 1680.18 176.469 1687.53 166.983 C 1708.64 139.706 1737.3 125.779 1771.05 121.499 z"/>
<path transform="translate(0,0)" fill="rgb(17,24,45)" d="M 240.694 325.102 C 280.942 323.823 321.573 324.934 361.861 324.943 L 594.047 325.026 L 1253.11 325.163 C 1260.53 328.94 1314.13 383.694 1323.75 393.044 C 1355.5 423.883 1388.15 453.991 1419.51 485.199 C 1420.43 486.118 1421.01 487.141 1421.53 488.331 C 1421.95 488.953 1422.29 489.471 1422.5 490.204 C 1423.37 493.237 1424.32 562.884 1423.92 569.232 C 1423.82 570.727 1423.37 571.906 1422.6 573.188 C 1422.51 574.852 1422 575.875 1421.06 577.25 C 1413.96 587.663 1402.42 597.539 1393.5 606.461 A 7343.67 7343.67 0 0 1 1335.82 663.352 L 1283.18 715.645 C 1275.38 723.37 1267.8 731.665 1259.57 738.894 C 1257.2 740.97 1256.4 741.235 1253.23 741.76 C 1211.13 742.578 1168.87 741.789 1126.75 741.878 L 802.484 742.035 L 553.968 742.331 C 450.639 742.948 346.98 744.297 243.67 742.577 C 224.684 729.491 201.891 702.776 184.789 685.897 A 6984.77 6984.77 0 0 1 114.801 615.698 C 102.88 603.778 89.9778 592.544 78.7826 579.96 C 76.6262 577.537 73.5632 574.509 72.7742 571.266 C 70.0138 559.919 71.6053 505.102 72.468 490.411 C 80.9587 480.31 91.411 471.1 100.749 461.744 A 4440.35 4440.35 0 0 1 160.284 402.779 C 185.071 378.554 208.491 352.53 234.229 329.307 C 236.207 327.523 238.264 326.179 240.694 325.102 z"/>
<path transform="translate(0,0)" fill="rgb(63,181,184)" d="M 751.728 693.038 L 766.49 693.138 C 775.631 704.467 785.143 715.522 794.486 726.687 L 781.151 726.834 C 771.034 715.919 761.736 704.104 751.728 693.038 z"/>
<path transform="translate(0,0)" fill="rgb(63,181,184)" d="M 633.075 341.014 L 647.476 341.084 C 657.726 351.368 668.278 362.977 676.965 374.621 L 662.961 374.695 A 1135.52 1135.52 0 0 0 633.075 341.014 z"/>
<path transform="translate(0,0)" fill="rgb(63,181,184)" d="M 586.89 692.973 L 641.458 693.176 C 650.598 704.571 661.025 714.883 669.697 726.682 A 4071.52 4071.52 0 0 0 616.069 726.733 L 586.89 692.973 z"/>
<path transform="translate(0,0)" fill="rgb(93,233,231)" d="M 1159.37 341.427 C 1167.93 339.697 1178.61 340.669 1187.39 340.649 L 1242.16 340.593 C 1242.2 341.039 1242.29 341.697 1242.24 342.173 C 1241.68 347.239 1234.45 359.079 1230.62 362.504 C 1230.63 362.824 1230.66 363.143 1230.65 363.463 C 1230.51 367.155 1226.55 371.936 1223.85 374.163 L 1193.25 374.184 C 1192.39 369.691 1164.78 346.175 1159.37 341.427 z"/>
<path transform="translate(0,0)" fill="rgb(63,181,184)" d="M 1068.87 693.073 L 1128.59 693.35 C 1133.53 699.124 1153.95 720.463 1154.47 726.651 C 1147.2 728.701 1108.45 727.228 1098.64 727.226 C 1088.29 716.394 1078.33 704.701 1068.87 693.073 z"/>
<path transform="translate(0,0)" fill="rgb(93,233,231)" d="M 272.105 692.695 L 304.628 692.683 C 315.32 703.655 325.844 715.192 335.534 727.058 L 314.5 727.161 L 250.81 727.225 C 257.214 715.426 264.958 704.072 272.105 692.695 z"/>
<path transform="translate(0,0)" fill="rgb(93,233,231)" d="M 1284.36 639.495 C 1285.45 639.623 1286.4 639.657 1287.35 640.275 C 1291.03 642.683 1309.27 660.764 1310.41 664.578 C 1310.37 664.826 1310.33 665.076 1310.27 665.321 C 1309.49 668.779 1261.53 715.559 1256.61 718.513 C 1256.27 719.529 1255.88 719.644 1255.07 720.307 C 1246.48 714.145 1241.28 696.612 1232.26 688.805 C 1238.95 684.891 1280 645.926 1284.36 639.495 z"/>
<path transform="translate(0,0)" fill="rgb(93,233,231)" d="M 240.992 344.811 C 248.834 350.29 260.794 368.382 266.991 376.646 C 250.2 393.079 232.163 408.583 214.818 424.465 A 1955.15 1955.15 0 0 0 187.755 398.832 C 205.035 380.451 223.268 362.777 240.992 344.811 z"/>
<path transform="translate(0,0)" fill="rgb(93,233,231)" d="M 1138.56 693.218 L 1225.6 693.095 C 1229.66 695.89 1232.98 701.806 1235.79 705.828 C 1239.24 710.76 1247.62 720.536 1246.56 726.507 C 1240.28 728.829 1176.3 727.093 1165.09 727.048 C 1164.15 720.527 1143.65 699.181 1138.56 693.218 z"/>
<path transform="translate(0,0)" fill="rgb(93,233,231)" d="M 1356.87 499.499 C 1372.73 498.336 1389.24 499.184 1405.17 499.127 C 1406.04 500.569 1406.61 502.337 1406.7 504.026 C 1407.1 511.838 1407.82 559.419 1405.13 562.503 C 1398.63 564.891 1365.48 563.25 1356.32 563.223 C 1363.4 553.219 1358.66 512.2 1356.87 499.499 z"/>
<path transform="translate(0,0)" fill="rgb(17,24,45)" d="M 1376.96 518.498 C 1380.99 517.692 1385 517.165 1388.84 519.028 C 1392.18 520.648 1394.95 523.819 1396.2 527.305 A 12.4833 12.4833 0 0 1 1395.5 537.478 C 1393.51 541.227 1390.7 543.131 1386.8 544.502 C 1385.58 545.047 1384.65 545.278 1383.32 545.295 C 1379.71 545.342 1375.94 545.077 1373.33 542.264 C 1370.49 539.192 1369.89 534.73 1370.02 530.698 C 1370.21 524.965 1373.07 522.225 1376.96 518.498 z"/>
<path transform="translate(0,0)" fill="rgb(44,124,134)" d="M 1378.01 525.496 C 1378.96 525.241 1379.91 525.02 1380.89 524.9 C 1383.54 524.574 1386.03 525.098 1388.03 526.987 C 1389.97 528.819 1390.07 529.996 1390.17 532.457 C 1388.54 535.319 1388.03 535.787 1385.19 537.477 C 1384.05 538.207 1382.32 538.323 1380.99 538.594 C 1378.9 537.802 1378.07 537.415 1377.22 535.222 C 1375.87 531.75 1376.78 528.819 1378.01 525.496 z"/>
<path transform="translate(0,0)" fill="rgb(93,233,231)" d="M 88.5223 500.923 L 138.114 501.012 C 138.159 521.241 139.433 542.195 137.963 562.343 L 88.3269 562.67 C 88.1447 542.097 88.443 521.498 88.5223 500.923 z"/>
<path transform="translate(0,0)" fill="rgb(17,24,45)" d="M 111.258 515.991 A 22.1993 22.1993 0 0 1 118.852 517.066 C 122.54 518.24 125.65 521.133 127.324 524.597 C 129.139 528.351 129.303 532.547 127.897 536.461 C 125.904 542.013 122.207 544.529 117.056 546.931 C 114.193 547.013 111.371 547.079 108.624 546.124 C 104.707 544.761 101.43 541.631 99.8169 537.824 A 15.2664 15.2664 0 0 1 99.8561 526.018 C 102.158 520.454 105.97 518.27 111.258 515.991 z"/>
<path transform="translate(0,0)" fill="rgb(93,233,231)" d="M 111.842 523.641 C 114.428 524.023 117.398 524.418 119.232 526.512 C 120.873 528.385 121.437 530.465 120.948 532.904 C 120.308 536.095 117.683 537.94 115.244 539.741 C 112.868 539.308 110.21 538.764 108.489 536.903 C 106.832 535.111 106.169 533.128 106.561 530.713 C 107.069 527.583 109.58 525.569 111.842 523.641 z"/>
<path transform="translate(0,0)" fill="rgb(93,233,231)" d="M 651.886 693.083 L 742.58 692.934 C 752.512 704.139 762.17 715.612 771.94 726.961 L 681.247 727.127 A 3147.97 3147.97 0 0 0 651.886 693.083 z"/>
<path transform="translate(0,0)" fill="rgb(93,233,231)" d="M 527.484 341.019 L 622.95 341.095 C 633.254 351.842 643.05 363.172 653.028 374.227 L 557.189 374.112 C 547.291 363.08 537.125 352.278 527.484 341.019 z"/>
<path transform="translate(0,0)" fill="rgb(93,233,231)" d="M 483.989 692.766 C 514.725 691.354 546.104 692.702 576.902 692.844 C 586.166 704.455 596.218 715.507 605.905 726.769 C 575.26 727.158 544.59 726.967 513.941 727.001 A 975.538 975.538 0 0 1 483.989 692.766 z"/>
<path transform="translate(0,0)" fill="rgb(93,233,231)" d="M 1366.63 570.5 A 3731.73 3731.73 0 0 1 1404.34 570.128 C 1404.28 570.458 1404.23 570.792 1404.16 571.119 C 1403.16 575.606 1329.72 648.381 1322.43 652.555 C 1320.92 655.792 1318.54 657.376 1315.64 659.186 C 1313.47 654.14 1295.52 636.65 1290.42 633.498 C 1296.93 630.292 1351.51 578.368 1356.54 570.776 L 1366.63 570.5 z"/>
<path transform="translate(0,0)" fill="rgb(93,233,231)" d="M 181.94 403.844 C 191.178 412.196 199.851 421.288 208.692 430.061 C 185.005 450.131 162.481 472.005 139.535 492.937 L 123.25 492.942 L 92.4728 492.966 A 11819.3 11819.3 0 0 1 181.94 403.844 z"/>
<path transform="translate(0,0)" fill="rgb(93,233,231)" d="M 249.33 341.03 L 367.889 341.022 L 397.324 374.062 L 275.348 374.113 C 266.896 362.937 258.001 352.042 249.33 341.03 z"/>
<path transform="translate(0,0)" fill="rgb(63,181,184)" d="M 378.526 341.206 L 517.861 341.314 L 547.294 373.903 L 407.179 373.972 C 397.906 362.832 388.122 352.07 378.526 341.206 z"/>
<path transform="translate(0,0)" fill="rgb(63,181,184)" d="M 315.702 692.664 C 333.445 691.885 351.526 692.579 369.298 692.613 L 472.469 692.824 A 4247.85 4247.85 0 0 0 503.203 727.016 L 347.584 727.027 C 336.631 715.954 326.285 704.103 315.702 692.664 z"/>
<path transform="translate(0,0)" fill="rgb(63,181,184)" d="M 979.033 341.248 L 1149.61 341.24 C 1155.9 347.625 1179.54 366.734 1181.44 373.516 C 1174.25 375.796 1142.78 374.032 1133.6 374.024 L 1012.79 374.004 C 1002.32 362.509 990.304 351.974 979.033 341.248 z"/>
<path transform="translate(0,0)" fill="rgb(93,233,231)" d="M 1248.42 344.48 L 1250.89 345.041 L 1251.11 344.524 A 26.0692 26.0692 0 0 1 1252.97 345.741 C 1258.15 349.426 1263.08 355.42 1267.65 359.9 L 1301.88 393.429 C 1333.62 424.507 1366.81 454.568 1397.43 486.73 C 1399.06 488.443 1400.12 489.624 1400.52 492.016 L 1382.75 491.965 L 1354.2 491.983 C 1353.84 490.705 1353.01 489.713 1352.11 488.751 C 1333.54 469.096 1308.3 447.808 1288.12 428.839 C 1278.32 419.625 1241.08 381.89 1231.18 376.351 C 1231.53 376.075 1231.86 375.791 1232.18 375.49 C 1236.28 371.642 1248.22 349.893 1248.42 344.48 z"/>
<path transform="translate(0,0)" fill="rgb(93,233,231)" d="M 92.6439 570.777 A 4109.49 4109.49 0 0 0 140.027 570.621 C 156.714 587.611 174.641 603.695 191.828 620.202 C 216.096 643.509 239.949 667.258 264.364 690.409 L 252.415 709.232 L 243.654 723.168 L 92.6439 570.777 z"/>
<path transform="translate(0,0)" fill="rgb(93,233,231)" d="M 775.613 692.868 L 1058.42 693.012 L 1088.27 726.963 L 804.667 726.982 C 794.416 716.105 785.051 704.445 775.613 692.868 z"/>
<path transform="translate(0,0)" fill="rgb(93,233,231)" d="M 657.532 341.042 L 968.703 340.948 C 979.076 352.849 990.814 363.529 1002.43 374.191 L 687.053 374.16 A 1758.91 1758.91 0 0 1 657.532 341.042 z"/>
<path transform="translate(0,0)" fill="rgb(180,248,252)" d="M 276.062 388.912 L 1222.08 389.013 C 1226.76 391.373 1337.9 495.306 1339.6 499.192 C 1342.27 502.915 1343.11 508.454 1343.9 512.918 C 1346.19 525.95 1347.21 554.579 1339.33 565.795 C 1338.76 567.69 1230.75 672.021 1222.2 677.343 C 1219.51 679.003 355.445 678.277 274.361 677.75 C 245.82 651.74 218.54 624.143 190.76 597.306 C 178.569 585.529 166.609 572.907 153.501 562.161 L 153.571 501.685 C 174.985 483.267 195.543 463.698 216.343 444.583 C 236.349 426.198 256.839 408.115 276.062 388.912 z"/>
<path transform="translate(0,0)" fill="rgb(17,24,45)" d="M 1038.59 401.493 L 1134.29 401.616 C 1189.7 401.793 1201.07 403.347 1243.29 440.597 C 1257.67 453.277 1272.77 465.52 1286.41 478.989 C 1299.9 492.317 1309.05 512.144 1308.95 531.192 A 73.2641 73.2641 0 0 1 1287.43 582.169 C 1276.3 593.234 1264.19 603.517 1252.64 614.149 C 1233.89 631.401 1215.12 654.003 1189.97 661.726 C 1169.6 667.983 1124.34 664.91 1101.72 664.828 L 1006.92 664.918 L 458.5 665.185 L 365.628 665.25 C 350.242 665.267 333.819 666.544 318.577 664.625 C 309.356 663.465 300.27 660.89 292.08 656.434 C 273.512 646.334 244.338 615.98 228.248 600.589 C 221.137 593.788 213.596 587.444 206.57 580.552 C 193.208 567.445 186.079 550.414 186.01 531.655 A 70.9126 70.9126 0 0 1 207.113 480.224 C 218.309 468.985 231.685 459.443 243.775 449.12 C 257.766 437.172 271.305 423.4 286.392 412.961 C 291.766 409.242 297.78 405.987 304.098 404.216 C 322.084 399.174 360.782 401.792 381.094 401.811 L 500.753 401.887 L 1038.59 401.493 z"/>
<path transform="translate(0,0)" fill="rgb(180,248,252)" d="M 314.381 410.218 C 328.861 409.2 344.211 410.198 358.77 410.2 L 452.01 410.181 L 741.872 410.06 L 1027.61 409.956 L 1119.26 409.892 C 1136.23 409.887 1153.66 409.074 1170.57 410.324 C 1185.43 411.424 1198.17 415.422 1210.61 423.75 C 1222.58 431.768 1232.88 442.25 1243.72 451.703 C 1265.33 470.564 1294.31 489.303 1299.97 519.509 A 64.7264 64.7264 0 0 1 1289.85 567.488 C 1281.67 579.394 1218.14 636.878 1205.25 645.405 C 1197.38 650.617 1189.54 654.031 1180.2 655.813 C 1179.97 655.875 1179.74 655.942 1179.51 655.999 C 1166.91 659.122 1121.81 657.1 1105.83 657.082 L 929.604 656.901 L 527.263 656.987 L 398.952 657.068 C 375.551 657.102 351.807 657.935 328.444 656.92 C 314.458 656.312 305.341 654.795 293.428 647.364 C 279.549 638.708 215.129 579.994 205.352 567.162 C 200.574 560.891 197.257 552.892 195.531 545.232 C 191.613 527.856 194.716 510.971 204.478 496.105 C 211.614 485.238 284.124 423.198 296.764 415.734 C 302.102 412.582 308.376 411.412 314.381 410.218 z"/>
<path transform="translate(0,0)" fill="rgb(17,24,45)" d="M 933.326 501.397 C 936.304 501.959 937.744 502.06 940.145 504.026 C 941.096 506.915 939.95 509.241 938.969 511.944 C 935.584 511.427 933.579 511.061 931.23 508.556 C 930.781 505.576 931.917 503.873 933.326 501.397 z"/>
<path transform="translate(0,0)" fill="rgb(17,24,45)" d="M 932.092 517.87 C 934.713 517.752 936.901 517.877 939.46 518.469 C 941.626 524.074 940.35 552.313 940.386 560.018 C 937.616 560.097 935.393 560.045 932.691 559.3 C 930.399 551.16 932.068 527.601 932.092 517.87 z"/>
<path transform="translate(0,0)" fill="rgb(17,24,45)" d="M 1130.31 516.736 C 1132.87 517.075 1134.02 516.829 1135.9 518.832 C 1136.1 521.369 1135.98 523.119 1135.13 525.526 C 1132.86 526.422 1130.69 526.04 1128.47 526.708 C 1118.48 529.713 1128.02 551.606 1122.86 558.89 C 1121.6 560.666 1118.37 560.458 1116.33 560.718 C 1114.24 550.513 1115.46 530.742 1116.33 519.811 L 1117.19 520.301 L 1116.66 518.53 C 1118.63 517.733 1119.41 516.958 1121.46 517.694 C 1121.92 519.355 1122.24 520.305 1123.51 521.565 C 1126.42 521.143 1128.29 518.713 1130.31 516.736 z"/>
<path transform="translate(0,0)" fill="rgb(17,24,45)" d="M 907.512 500.931 C 909.929 500.906 912.099 501.105 914.473 501.556 C 918.777 506.995 913.365 539.1 916.564 549.196 C 918.918 551.853 920.666 551.79 924.058 552.632 C 926.174 554.791 926.09 556.427 926.618 559.328 C 924.347 560.408 921.388 561.146 918.867 561.262 C 916.314 561.38 913.898 560.784 912.093 558.892 C 904.244 550.663 907.557 513.399 907.512 500.931 z"/>
<path transform="translate(0,0)" fill="rgb(17,24,45)" d="M 961.843 516.915 C 964.768 516.849 967.748 516.952 970.492 518.091 C 973.037 519.147 974.973 520.452 976.092 523.046 C 975.842 523.837 975.568 524.807 975.069 525.477 C 972.377 529.097 968.143 524.796 963.965 525.713 C 961.282 527.47 959.866 529.409 958.749 532.368 C 957.044 536.887 956.86 543.16 959.007 547.562 C 960.294 550.201 961.858 551.528 964.546 552.587 C 967.409 552.755 969.214 551.984 971.713 550.77 L 972.627 550.32 L 974.268 550.94 C 974.684 552.177 975.294 553.718 975.389 555.034 C 975.568 557.506 973.95 558.853 972.469 560.532 C 970.218 561.443 968.344 561.922 965.903 561.506 C 960.276 560.547 955.027 556.62 951.99 551.872 C 948.635 546.625 947.285 539.744 948.773 533.658 C 950.525 526.495 955.753 520.698 961.843 516.915 z"/>
<path transform="translate(0,0)" fill="rgb(17,24,45)" d="M 1091.98 517.02 C 1096.43 517.029 1100.2 517.302 1103.61 520.616 C 1108.32 525.208 1108.02 532.991 1108.14 539.086 C 1103.01 539.018 1092.57 537.603 1088.58 540.58 C 1088.24 541.887 1087.99 543.135 1088.26 544.485 C 1088.87 547.567 1090.78 550.049 1093.51 551.565 C 1097.84 553.96 1101.78 552.327 1106.17 551.039 C 1106.47 553.123 1106.58 554.824 1106.19 556.906 C 1105.95 558.207 1104.18 560.001 1103.07 560.65 C 1100.92 561.898 1098.03 561.994 1095.65 561.473 C 1090.74 560.398 1086.32 557.059 1083.61 552.88 C 1080.14 547.529 1078.82 539.803 1080.19 533.577 C 1081.76 526.494 1085.93 520.796 1091.98 517.02 z"/>
<path transform="translate(0,0)" fill="rgb(180,248,252)" d="M 1093.24 523.342 C 1095.04 524.014 1096.83 525.03 1098.09 526.524 C 1099.75 528.489 1099.9 529.429 1099.66 531.804 L 1097.83 532.777 C 1094.75 532.771 1091.74 533.157 1089.41 531.011 C 1089.49 528.054 1091.61 525.705 1093.24 523.342 z"/>
<path transform="translate(0,0)" fill="rgb(17,24,45)" d="M 1151.1 517.115 C 1153.78 516.881 1157.22 516.321 1159.7 517.52 C 1163.19 519.204 1166.32 522.628 1167.44 526.317 C 1168.57 530.045 1168.71 535.681 1166.81 539.121 C 1162.53 538.978 1157.06 538.309 1153.01 539.759 C 1149.99 540.836 1149.01 542.175 1147.74 544.867 C 1147.81 545.639 1147.98 546.161 1148.42 546.81 C 1150.15 549.379 1153.95 552.08 1157.04 552.596 C 1159.68 553.037 1162.36 552.072 1164.43 550.484 C 1165.24 551.207 1165.9 552.169 1166.6 553.01 C 1166.95 555.601 1167.29 556.112 1166 558.482 C 1162.35 560.175 1157.95 561.737 1153.87 561.229 C 1150.41 560.799 1147.5 558.936 1145.46 556.143 C 1140.94 549.988 1140.21 540.887 1141.36 533.579 C 1142.55 525.955 1144.96 521.675 1151.1 517.115 z"/>
<path transform="translate(0,0)" fill="rgb(180,248,252)" d="M 1152.85 522.814 C 1154.5 523.1 1156.63 523.468 1157.88 524.686 C 1159.93 526.684 1160.25 527.863 1160.27 530.52 C 1158.43 532.723 1157.96 532.523 1155.07 533.026 C 1153.34 532.962 1152.29 532.685 1150.68 532.034 C 1149.92 528.571 1151.59 526.082 1152.85 522.814 z"/>
<path transform="translate(0,0)" fill="rgb(17,24,45)" d="M 885.032 502.252 C 888.198 502.454 892.124 502.393 894.993 503.888 C 897.881 505.394 898.494 506.94 899.214 509.848 L 897.478 508.528 L 898.989 511.07 C 898.918 511.285 898.868 511.508 898.776 511.714 C 896.413 517.041 886.665 509.165 880.183 512.778 C 877.413 514.321 876.076 517.357 875.351 520.301 C 873.643 527.229 873.334 541.322 877.475 547.487 C 879.234 550.107 881.838 551.892 884.985 552.35 C 889.753 553.044 893.044 550.691 896.777 548.17 C 897.564 551.153 898.314 553.826 898.136 556.952 C 896.7 559.173 894.609 559.808 892.171 560.54 C 887.347 561.988 882.142 561.941 877.655 559.474 C 872.2 556.475 868.868 550.765 867.167 544.941 C 864.236 534.904 864.777 522.245 870.094 513.068 C 873.713 506.823 878.201 504.085 885.032 502.252 z"/>
<path transform="translate(0,0)" fill="rgb(17,24,45)" d="M 982.934 501.927 C 985.621 501.807 987.96 501.504 990.464 502.682 C 991.998 512.948 990.879 524.432 990.761 534.838 C 995.379 527.312 998.535 522.336 1005.86 517.105 L 1008.13 519.376 L 1008.46 516.277 C 1008.5 516.504 1008.55 516.73 1008.59 516.959 C 1009.47 522.857 1002.17 531.026 998.942 535.63 L 1009.32 553.665 C 1010.44 555.747 1011.65 557.27 1011.56 559.683 C 1009.82 560.329 1008.44 560.552 1006.59 560.159 C 1000.64 558.898 994.199 543.854 990.985 538.57 C 990.952 544.646 992.591 553.986 990.38 559.502 C 987.869 559.845 986.005 559.963 983.546 559.281 C 981.085 542.515 982.928 519.377 982.934 501.927 z"/>
<path transform="translate(0,0)" fill="rgb(17,24,45)" d="M 1064.17 527.854 C 1064.07 521.514 1062.43 509.037 1065.47 503.484 C 1067.5 502.995 1068.01 502.836 1070.1 503.399 C 1075.36 510.086 1072.9 549.208 1072.85 559.909 A 56.3966 56.3966 0 0 1 1070.82 559.959 C 1069.13 559.955 1066.87 560.09 1065.7 558.804 C 1062.27 555.062 1064.37 541.454 1064.44 536.261 L 1051.23 536.106 C 1051.13 543.011 1053.47 552.911 1049.74 558.935 C 1047.34 560.251 1047.03 560.387 1044.32 560.138 C 1041.07 555.491 1042.94 512.266 1042.92 502.933 C 1044.99 502.94 1046.93 503.11 1048.98 503.432 C 1053.46 508.139 1051.15 521.539 1051.07 527.838 L 1064.17 527.854 z"/>
<path transform="translate(0,0)" fill="rgb(17,24,45)" d="M 738.782 455.333 A 81.0506 81.0506 0 0 1 793.606 468.127 C 811.64 479.971 824.473 498.135 828.769 519.362 A 80.0388 80.0388 0 0 1 816.617 580.505 C 803.406 600.255 783.98 611.476 760.966 616.007 C 739.533 618.82 718.46 613.917 700.918 601.122 A 81.1531 81.1531 0 0 1 668.78 548.137 A 80.0136 80.0136 0 0 1 683.756 487.448 C 697.182 469.202 716.636 458.751 738.782 455.333 z"/>
<path transform="translate(0,0)" fill="rgb(93,233,231)" d="M 740.338 470.281 C 755.42 468.406 771.782 472.174 784.627 480.195 A 65.8815 65.8815 0 0 1 813.878 521.763 A 67.0269 67.0269 0 0 1 804.739 571.698 C 794.309 587.998 778.438 596.87 759.935 600.803 C 741.919 602.703 726.409 600.56 711.17 589.925 A 65.2346 65.2346 0 0 1 683.807 546.605 C 680.858 529.27 684.627 511.671 694.922 497.352 C 706.032 481.9 721.771 473.212 740.338 470.281 z"/>
<path transform="translate(0,0)" fill="rgb(17,24,45)" d="M 786.854 493.927 C 788.381 494.411 789.819 495.018 791.118 495.965 C 800.685 502.938 805.723 513.072 807.316 524.61 C 809.59 541.077 804.256 557.375 794.18 570.408 C 784.214 583.299 769.96 592.632 753.619 594.621 C 737.353 596.6 723.804 591.417 711.209 581.487 C 708.118 578.562 705.523 574.988 702.85 571.675 C 713.031 577.951 722.549 584.727 734.614 586.87 C 749.464 589.508 764.82 586.469 777.108 577.608 A 57.5812 57.5812 0 0 0 800.335 539.964 C 803.124 522.094 797.08 508.026 786.854 493.927 z"/>
<path transform="translate(0,0)" fill="rgb(17,24,45)" d="M 442.04 444.356 C 463.356 442.365 485.57 447.901 503.015 460.448 C 522.348 474.355 536.376 496.134 540.221 519.691 A 94.2955 94.2955 0 0 1 523.881 588.703 C 508.086 610.562 485.782 621.657 459.653 625.943 C 436.52 626.73 415.397 622.104 396.563 608.115 A 90.7436 90.7436 0 0 1 360.969 547.618 A 91.7284 91.7284 0 0 1 378.924 479.716 C 394.593 459.144 416.712 447.779 442.04 444.356 z"/>
<path transform="translate(0,0)" fill="rgb(93,233,231)" d="M 444.244 454.339 C 463.252 452.678 483.374 458.484 498.726 469.77 A 78.2619 78.2619 0 0 1 530.362 522.299 C 533.621 544.107 528.168 565.432 515.025 583.105 C 500.585 602.523 482.01 612.378 458.397 615.931 C 438.26 616.635 419.47 611.952 403.111 599.895 A 80.8738 80.8738 0 0 1 371.668 546.855 A 79.9229 79.9229 0 0 1 386.98 486.343 C 401.193 467.51 421.234 457.492 444.244 454.339 z"/>
<path transform="translate(0,0)" fill="rgb(17,24,45)" d="M 444.583 461.372 C 460.909 460.163 477.222 464.013 490.933 473.114 A 73.492 73.492 0 0 1 522.304 520.08 C 526.149 539.649 522.376 559.334 511.286 575.933 C 498.734 594.72 481.433 603.777 459.702 608.044 C 439.899 609.114 421.013 605.002 405.175 592.419 C 389.922 580.301 380.028 561.709 377.916 542.391 A 75.4035 75.4035 0 0 1 394.005 487.829 C 406.9 471.886 424.453 463.535 444.583 461.372 z"/>
<path transform="translate(0,0)" fill="rgb(93,233,231)" d="M 441.286 469.279 C 456.541 467.122 473.235 470.44 486.099 478.957 C 500.92 488.771 510.708 504.942 514.231 522.211 A 66.5231 66.5231 0 0 1 504.306 572.333 C 493.694 588.353 479.147 596.234 460.767 600.11 A 66.0817 66.0817 0 0 1 411.855 588.497 A 66.2891 66.2891 0 0 1 385.207 545.075 A 67.4452 67.4452 0 0 1 397.519 495.048 C 408.311 480.243 423.472 472.171 441.286 469.279 z"/>
<path transform="translate(0,0)" fill="rgb(17,24,45)" d="M 481.242 552.979 C 483.122 553.006 485.085 553.006 486.941 553.33 C 490.068 553.876 493.539 555.836 495.227 558.538 C 496.942 561.283 496.891 564.382 496.088 567.405 C 494.157 574.668 489.091 578.881 482.882 582.591 C 480.536 582.844 477.795 582.912 475.501 582.257 C 472.442 581.384 469.738 579.556 468.245 576.685 C 466.418 573.174 467.069 568.989 468.372 565.431 C 470.756 558.92 475.187 555.84 481.242 552.979 z"/>
<path transform="translate(0,0)" fill="rgb(44,124,134)" d="M 483.007 557.936 C 484.91 558.32 487.389 558.901 489.012 559.94 C 491.039 561.238 491.186 562.812 491.596 564.95 C 490.288 570.653 486.212 573.91 481.784 577.357 C 478.61 577.428 476.372 577.136 473.94 574.995 C 472.632 572.057 472.111 570.629 473.278 567.401 C 475.082 562.413 478.413 560.144 483.007 557.936 z"/>
<path transform="translate(0,0)" fill="rgb(17,24,45)" d="M 409.97 554.183 C 412.49 553.778 415.502 553.437 418.05 553.804 C 422.723 554.477 427.559 557.867 430.323 561.645 C 432.691 564.883 433.773 568.729 433.003 572.727 C 432.072 577.56 429.319 579.974 425.493 582.64 C 423.551 582.873 421.448 583.072 419.494 582.919 C 414.773 582.549 409.428 578.972 406.514 575.371 C 403.858 572.088 402.38 567.929 403.037 563.692 C 403.763 559.01 406.448 556.857 409.97 554.183 z"/>
<path transform="translate(0,0)" fill="rgb(44,124,134)" d="M 411.551 558.849 C 416.454 558.706 420.078 558.991 424.054 562.185 C 426.167 563.884 427.649 566.292 427.831 569.035 C 428.098 573.054 426.277 575.301 423.868 578.18 C 419.026 578.247 415.605 577.184 411.917 573.945 C 409.58 571.892 408.209 569.119 408.097 565.999 C 407.988 562.917 409.673 561.029 411.551 558.849 z"/>
<path transform="translate(0,0)" fill="rgb(17,24,45)" d="M 479.061 488.142 C 481.764 488.485 484.359 488.998 486.819 490.221 C 491.198 492.399 494.976 496.714 496.502 501.367 C 497.644 504.851 497.504 508.626 495.713 511.873 C 493.278 516.287 489.355 517.713 484.789 518.946 C 482.308 518.647 479.849 518.118 477.561 517.088 C 473.244 515.144 469.58 510.646 468.071 506.213 C 466.848 502.626 466.916 498.716 468.735 495.331 C 471.016 491.087 474.649 489.382 479.061 488.142 z"/>
<path transform="translate(0,0)" fill="rgb(44,124,134)" d="M 478.727 492.793 C 483.557 494.015 487.638 495.896 490.582 500.106 C 492.003 502.138 492.726 504.597 492.154 507.056 C 491.313 510.672 488.451 512.016 485.479 513.662 C 480.804 512.645 477.037 511.287 474.237 507.103 C 472.778 504.922 472.028 502.534 472.6 499.912 C 473.392 496.28 475.842 494.685 478.727 492.793 z"/>
<path transform="translate(0,0)" fill="rgb(17,24,45)" d="M 417.187 488.944 C 419.651 488.819 422.135 488.721 424.521 489.478 C 427.491 490.421 430.424 492.653 431.772 495.476 C 433.766 499.651 433.069 503.947 431.365 508.044 C 428.853 514.085 424.434 516.892 418.604 519.323 C 418.41 519.317 418.216 519.314 418.022 519.304 C 415.906 519.193 413.651 519.151 411.586 518.658 C 408.418 517.902 405.204 515.597 403.698 512.716 C 402.184 509.819 402.323 506.632 403.264 503.591 C 405.497 496.37 410.788 492.384 417.187 488.944 z"/>
<path transform="translate(0,0)" fill="rgb(44,124,134)" d="M 417.367 493.94 C 418.824 493.897 420.387 493.929 421.826 494.164 C 423.748 494.478 425.745 495.557 426.859 497.187 C 428.205 499.158 428.418 501.251 427.814 503.565 C 426.445 508.805 423.097 511.189 418.783 513.975 C 415.273 513.959 412.803 514.093 409.809 512.016 C 408.366 509.877 407.491 508.814 407.885 506.069 C 408.681 500.536 413.151 496.978 417.367 493.94 z"/>
</svg>